<?xml version="1.0" encoding="utf-8"?>
<svg viewBox="0 0 1600 1000" xmlns="http://www.w3.org/2000/svg">
  <g transform="matrix(0.781436, 0, 0, 0.738473, 17.732685, 21.595383)" style="">
    <svg viewBox="0 0 375 243" data-background-color="#ffffff" preserveAspectRatio="xMidYMid meet" height="1296" width="2000" xmlns="http://www.w3.org/2000/svg">
      <g id="tight-bounds" transform="matrix(1,0,0,1,-0.03976000000000113,-0.04600200000000143)">
        <svg viewBox="0 0 375.07953 243.092004" height="243.092004" width="375.07953">
          <g>
            <svg/>
          </g>
          <g>
            <svg viewBox="0 0 375.07953 243.092004" height="243.092004" width="375.07953">
              <g transform="matrix(1,0,0,1,-10.22024,-4.107990000000001)">
                <path d="M 10.22 243.092 L 10.22 4.108 L 385.3 4.108 L 385.3 243.092 L 357.907 243.092 L 358.059 237.298 L 379.178 237.185 L 379.217 10.632 L 16.661 10.736 L 17.083 236.687 L 37.811 236.843 L 37.613 243.092 L 10.22 243.092 Z" fill="#ff4057" fill-rule="nonzero" stroke="none" stroke-width="100" stroke-linecap="butt" stroke-linejoin="miter" stroke-miterlimit="100" stroke-dasharray="" stroke-dashoffset="0" font-family="none" font-weight="none" font-size="none" text-anchor="none" style="mix-blend-mode: normal; stroke-width: 100;" data-fill-palette-color="tertiary"/>
                <g>
                  <path transform="translate(46.41047,246.44121) scale(0.38912,0.38912)" d="M18.9-15.05c-1.033 3.3-2.233 6.15-3.6 8.55-1.367 2.4-2.783 4.233-4.25 5.5-1.467 1.267-2.867 1.9-4.2 1.9v0c-3.067 0-4.6-3.15-4.6-9.45v0c0-3.867 0.467-7.71 1.4-11.53 0.933-3.813 1.967-7.087 3.1-9.82v0c0.333-0.867 0.767-1.56 1.3-2.08 0.533-0.513 1.283-0.77 2.25-0.77v0c0.9 0 1.617 0.223 2.15 0.67 0.533 0.453 0.8 1.13 0.8 2.03v0l-0.05 0.6c0 0.067-0.2 0.617-0.6 1.65v0c-1 2.7-1.89 5.283-2.67 7.75-0.787 2.467-1.28 4.817-1.48 7.05v0c-0.1 1.133-0.15 2.25-0.15 3.35v0c0 1.1 0.117 1.99 0.35 2.67 0.233 0.687 0.567 1.03 1 1.03v0c0.967 0 2.143-1.393 3.53-4.18 1.38-2.78 2.703-6.113 3.97-10 1.267-3.88 2.2-7.287 2.8-10.22v0c0.133-0.633 0.517-1.167 1.15-1.6 0.633-0.433 1.183-0.65 1.65-0.65v0c0.833 0 1.443 0.207 1.83 0.62 0.38 0.42 0.57 1.063 0.57 1.93v0l-0.05 0.7c0 0.133-0.033 0.317-0.1 0.55-0.067 0.233-0.133 0.533-0.2 0.9v0c-1.6 7.6-2.567 13.267-2.9 17v0c-0.033 0.267-0.05 0.667-0.05 1.2v0c0 1.133 0.16 2.04 0.48 2.72 0.313 0.687 0.72 1.03 1.22 1.03v0c1.633 0 3.283-2.543 4.95-7.63 1.667-5.08 3.15-10.72 4.45-16.92v0c0.133-0.6 0.427-1.043 0.88-1.33 0.447-0.28 0.987-0.42 1.62-0.42v0c0.8 0 1.617 0.167 2.45 0.5 0.833 0.333 1.25 0.7 1.25 1.1v0l-0.8 3.5c-1.233 5.467-2.473 10.133-3.72 14-1.253 3.867-2.887 7.173-4.9 9.92-2.02 2.753-4.463 4.13-7.33 4.13v0c-2.8 0-4.2-2.567-4.2-7.7v0c0-2.367 0.3-5.117 0.9-8.25v0zM47.2-16.5c0.767-1.5 1.827-2.783 3.18-3.85 1.347-1.067 2.72-1.883 4.12-2.45 1.4-0.567 2.55-0.85 3.45-0.85v0c1.733 0 2.983 0.323 3.75 0.97 0.767 0.653 1.15 1.68 1.15 3.08v0c-1.967 5.133-3.267 10.667-3.9 16.6v0l0.7 2.45c-0.4 0.767-0.933 1.377-1.6 1.83-0.667 0.447-1.683 0.67-3.05 0.67v0c-0.8 0-1.383-0.267-1.75-0.8-0.367-0.533-0.55-1.2-0.55-2v0c0-2.233 0.327-4.69 0.98-7.37 0.647-2.687 1.403-5.43 2.27-8.23v0c0.333-1.067 0.5-1.617 0.5-1.65v0c0-0.467-0.267-0.7-0.8-0.7v0c-0.7 0-1.717 0.517-3.05 1.55-1.333 1.033-2.717 2.773-4.15 5.22-1.433 2.453-2.633 5.663-3.6 9.63v0c-0.033 0.167-0.117 0.517-0.25 1.05-0.133 0.533-0.433 0.917-0.9 1.15-0.467 0.233-1.183 0.35-2.15 0.35v0c-1.167 0-2.067-0.127-2.7-0.38-0.633-0.247-0.95-0.737-0.95-1.47v0c4.367-17.167 7.067-27.9 8.1-32.2v0c-0.033-0.433-0.057-1.01-0.07-1.73-0.02-0.713-0.03-1.27-0.03-1.67v0c0.1-0.467 0.46-0.827 1.08-1.08 0.613-0.247 1.237-0.37 1.87-0.37v0c1.067 0 1.967 0.283 2.7 0.85 0.733 0.567 1.133 1.283 1.2 2.15v0zM74.85 1.05c-3.267 0-5.65-0.65-7.15-1.95-1.5-1.3-2.25-3.033-2.25-5.2v0c0-3.167 0.793-6.1 2.38-8.8 1.58-2.7 3.693-4.843 6.34-6.43 2.653-1.58 5.513-2.37 8.58-2.37v0c1.867 0 3.433 0.523 4.7 1.57 1.267 1.053 1.9 2.597 1.9 4.63v0c0 1.167-0.377 2.123-1.13 2.87-0.747 0.753-1.82 1.42-3.22 2-1.4 0.587-3.667 1.413-6.8 2.48v0c-2.833 0.933-5.133 1.717-6.9 2.35v0c-0.133 0.5-0.2 1.017-0.2 1.55v0c0 0.933 0.393 1.65 1.18 2.15 0.78 0.5 1.887 0.75 3.32 0.75v0c0.9 0 1.933-0.183 3.1-0.55 1.167-0.367 1.9-0.833 2.2-1.4v0c1.133-2.067 2.167-3.1 3.1-3.1v0c1.367 0 2.293 0.257 2.78 0.77 0.48 0.52 0.737 1.097 0.77 1.73v0c-0.4 1.067-1.183 2.14-2.35 3.22-1.167 1.087-2.65 1.98-4.45 2.68-1.8 0.7-3.767 1.05-5.9 1.05zM72.7-12.4c3.3-1.067 6.017-2.06 8.15-2.98 2.133-0.913 3.2-1.82 3.2-2.72v0c0-0.4-0.217-0.723-0.65-0.97-0.433-0.253-0.9-0.38-1.4-0.38v0c-1 0-2.14 0.383-3.42 1.15-1.287 0.767-2.48 1.7-3.58 2.8-1.1 1.1-1.867 2.133-2.3 3.1zM97.25-1.9c-0.033 0.2-0.107 0.59-0.22 1.17-0.12 0.587-0.407 0.997-0.86 1.23-0.447 0.233-1.153 0.35-2.12 0.35v0c-1.1 0-1.9-0.117-2.4-0.35-0.5-0.233-0.75-0.733-0.75-1.5v0l2.4-9.55c1.333-5.5 2.217-9 2.65-10.5v0l-1.25-1.5c-0.1-0.1-0.15-0.217-0.15-0.35v0c0-0.333 0.367-0.61 1.1-0.83 0.733-0.213 1.75-0.32 3.05-0.32v0c1.167 0 1.95 0.323 2.35 0.97 0.4 0.653 0.65 1.497 0.75 2.53v0l-0.35 1.3c1.067-1.3 2.31-2.377 3.73-3.23 1.413-0.847 2.67-1.27 3.77-1.27v0c1.433 0 2.55 0.25 3.35 0.75 0.8 0.5 1.2 1.15 1.2 1.95v0c0 0.7-0.24 1.423-0.72 2.17-0.487 0.753-1.097 1.387-1.83 1.9-0.733 0.52-1.45 0.813-2.15 0.88v0c-0.667 0-1.117-0.083-1.35-0.25-0.233-0.167-0.35-0.417-0.35-0.75v0l0.3-1.65c-2.667 0.733-5.083 2.5-7.25 5.3v0zM121.05 1.05c-3.267 0-5.65-0.65-7.15-1.95-1.5-1.3-2.25-3.033-2.25-5.2v0c0-3.167 0.793-6.1 2.38-8.8 1.58-2.7 3.697-4.843 6.35-6.43 2.647-1.58 5.503-2.37 8.57-2.37v0c1.867 0 3.433 0.523 4.7 1.57 1.267 1.053 1.9 2.597 1.9 4.63v0c0 1.167-0.373 2.123-1.12 2.87-0.753 0.753-1.83 1.42-3.23 2-1.4 0.587-3.667 1.413-6.8 2.48v0c-2.833 0.933-5.133 1.717-6.9 2.35v0c-0.133 0.5-0.2 1.017-0.2 1.55v0c0 0.933 0.393 1.65 1.18 2.15 0.78 0.5 1.887 0.75 3.32 0.75v0c0.9 0 1.933-0.183 3.1-0.55 1.167-0.367 1.9-0.833 2.2-1.4v0c1.133-2.067 2.167-3.1 3.1-3.1v0c1.367 0 2.29 0.257 2.77 0.77 0.487 0.52 0.747 1.097 0.78 1.73v0c-0.4 1.067-1.183 2.14-2.35 3.22-1.167 1.087-2.65 1.98-4.45 2.68-1.8 0.7-3.767 1.05-5.9 1.05zM118.9-12.4c3.3-1.067 6.017-2.06 8.15-2.98 2.133-0.913 3.2-1.82 3.2-2.72v0c0-0.4-0.217-0.723-0.65-0.97-0.433-0.253-0.9-0.38-1.4-0.38v0c-1 0-2.14 0.383-3.42 1.15-1.287 0.767-2.48 1.7-3.58 2.8-1.1 1.1-1.867 2.133-2.3 3.1zM171.5-11.1c-4.367 0.733-7.85 1.4-10.45 2v0c-0.8 1.267-1.317 2.117-1.55 2.55v0c-0.7 1.233-1.323 2.257-1.87 3.07-0.553 0.82-1.147 1.547-1.78 2.18v0c-0.7 0.7-1.273 1.2-1.72 1.5-0.453 0.3-0.98 0.45-1.58 0.45v0c-1 0-1.873-0.227-2.62-0.68-0.753-0.447-1.13-0.903-1.13-1.37v0c0.067-0.067 0.433-0.81 1.1-2.23 0.667-1.413 1.9-3.187 3.7-5.32v0c0-0.267-0.083-0.6-0.25-1-0.167-0.4-0.25-0.633-0.25-0.7v0c0-0.967 1.517-2.133 4.55-3.5v0c1.7-2.533 3.493-5.033 5.38-7.5 1.88-2.467 4.187-5.383 6.92-8.75v0c0.667-0.833 1.517-1.517 2.55-2.05 1.033-0.533 2.067-0.8 3.1-0.8v0c1.067 0 1.867 0.1 2.4 0.3 0.533 0.2 0.877 0.467 1.03 0.8 0.147 0.333 0.22 0.8 0.22 1.4v0c-0.133 1-0.217 1.75-0.25 2.25v0c-0.5 4.033-0.873 7.49-1.12 10.37-0.253 2.887-0.38 5.763-0.38 8.63v0c0 2.633 0.117 5.05 0.35 7.25v0c-0.1 0.8-0.45 1.523-1.05 2.17-0.6 0.653-1.3 0.98-2.1 0.98v0c-1.533 0-2.54-0.383-3.02-1.15-0.487-0.767-0.73-2.067-0.73-3.9v0c0-1.333 0.183-3.65 0.55-6.95zM165-14.85c0.6-0.133 1.517-0.283 2.75-0.45v0l4-0.6c0.3-4.633 0.65-7.967 1.05-10v0c-1.3 1.533-3.9 5.217-7.8 11.05zM205.55-37.05c0.133-0.5 0.527-0.907 1.18-1.22 0.647-0.32 1.337-0.48 2.07-0.48v0c0.6 0 1.25 0.133 1.95 0.4 0.7 0.267 1.05 0.65 1.05 1.15v0l-3.15 12.3c-2.767 10.767-4.383 17.333-4.85 19.7v0c-0.2 1-0.3 1.767-0.3 2.3v0c0 0.9 0.1 1.783 0.3 2.65v0c-0.067 0.2-0.323 0.4-0.77 0.6-0.453 0.2-0.863 0.3-1.23 0.3v0c-0.667 0-1.4-0.083-2.2-0.25-0.8-0.167-1.3-0.35-1.5-0.55v0c-0.3-0.267-0.45-0.8-0.45-1.6v0c0-0.6 0.067-1.167 0.2-1.7v0c-0.7 1-1.757 1.823-3.17 2.47-1.42 0.653-2.563 0.98-3.43 0.98v0c-5.1 0-7.65-2.75-7.65-8.25v0c0-2.4 0.543-4.8 1.63-7.2 1.08-2.4 2.63-4.383 4.65-5.95 2.013-1.567 4.353-2.35 7.02-2.35v0c0.733 0 1.55 0.29 2.45 0.87 0.9 0.587 1.633 1.247 2.2 1.98v0c0.733-3.1 1.383-5.683 1.95-7.75v0c0.267-1.1 0.577-2.36 0.93-3.78 0.347-1.413 0.72-2.953 1.12-4.62zM200.45-16.25c-0.2-0.733-0.673-1.41-1.42-2.03-0.753-0.613-1.363-0.92-1.83-0.92v0c-1.533 0-2.967 0.5-4.3 1.5-1.333 1-2.39 2.3-3.17 3.9-0.787 1.6-1.18 3.25-1.18 4.95v0c0 1.267 0.233 2.4 0.7 3.4 0.467 1 1.183 1.5 2.15 1.5v0c0.833 0 1.81-0.277 2.93-0.83 1.113-0.547 2.103-1.263 2.97-2.15 0.867-0.88 1.4-1.787 1.6-2.72v0zM215.6 1.05c-1.133-0.233-1.933-0.467-2.4-0.7-0.467-0.233-0.767-0.55-0.9-0.95-0.133-0.4-0.217-1.083-0.25-2.05v0c-0.1-2.267-0.25-4.517-0.45-6.75v0c-0.033-0.533-0.133-2.117-0.3-4.75-0.167-2.633-0.25-5.133-0.25-7.5v0c0-0.6 0.31-1.1 0.93-1.5 0.613-0.4 1.387-0.6 2.32-0.6v0c1.8 0 2.7 0.817 2.7 2.45v0l0.05 13.7v3.5c2.233-4.2 4.76-8.533 7.58-13 2.813-4.467 4.637-6.7 5.47-6.7v0c1.067 0 1.967 0.207 2.7 0.62 0.733 0.42 1.117 0.897 1.15 1.43v0c-0.3 0.567-0.95 1.6-1.95 3.1v0c-0.4 0.567-1.117 1.667-2.15 3.3v0l-1.75 2.75c-2.8 4.367-4.75 7.357-5.85 8.97-1.1 1.62-2.033 2.78-2.8 3.48v0c-0.367 0.333-0.9 0.617-1.6 0.85-0.7 0.233-1.45 0.35-2.25 0.35zM242.15 1.05c-3.267 0-5.65-0.65-7.15-1.95-1.5-1.3-2.25-3.033-2.25-5.2v0c0-3.167 0.793-6.1 2.38-8.8 1.58-2.7 3.697-4.843 6.35-6.43 2.647-1.58 5.503-2.37 8.57-2.37v0c1.867 0 3.433 0.523 4.7 1.57 1.267 1.053 1.9 2.597 1.9 4.63v0c0 1.167-0.373 2.123-1.12 2.87-0.753 0.753-1.83 1.42-3.23 2-1.4 0.587-3.667 1.413-6.8 2.48v0c-2.833 0.933-5.133 1.717-6.9 2.35v0c-0.133 0.5-0.2 1.017-0.2 1.55v0c0 0.933 0.393 1.65 1.18 2.15 0.78 0.5 1.887 0.75 3.32 0.75v0c0.9 0 1.933-0.183 3.1-0.55 1.167-0.367 1.9-0.833 2.2-1.4v0c1.133-2.067 2.167-3.1 3.1-3.1v0c1.367 0 2.293 0.257 2.78 0.77 0.48 0.52 0.737 1.097 0.77 1.73v0c-0.4 1.067-1.183 2.14-2.35 3.22-1.167 1.087-2.65 1.98-4.45 2.68-1.8 0.7-3.767 1.05-5.9 1.05zM240-12.4c3.3-1.067 6.017-2.06 8.15-2.98 2.133-0.913 3.2-1.82 3.2-2.72v0c0-0.4-0.217-0.723-0.65-0.97-0.433-0.253-0.9-0.38-1.4-0.38v0c-1 0-2.14 0.383-3.42 1.15-1.287 0.767-2.48 1.7-3.58 2.8-1.1 1.1-1.867 2.133-2.3 3.1zM261.9-22.85c-0.1-0.1-0.15-0.217-0.15-0.35v0c0-0.333 0.367-0.61 1.1-0.83 0.733-0.213 1.75-0.32 3.05-0.32v0c1.2 0 2.083 0.307 2.65 0.92 0.567 0.62 0.9 1.363 1 2.23v0l-0.9 3.25c0.7-0.967 1.683-1.893 2.95-2.78 1.267-0.88 2.55-1.587 3.85-2.12 1.3-0.533 2.367-0.8 3.2-0.8v0c1.767 0 3.05 0.323 3.85 0.97 0.8 0.653 1.2 1.68 1.2 3.08v0c-1.967 5.133-3.267 10.667-3.9 16.6v0l0.7 2.45c-0.4 0.767-0.96 1.377-1.68 1.83-0.713 0.447-1.753 0.67-3.12 0.67v0c-0.8 0-1.383-0.267-1.75-0.8-0.367-0.533-0.55-1.2-0.55-2v0c0-2.233 0.327-4.69 0.98-7.37 0.647-2.687 1.403-5.43 2.27-8.23v0c0.333-1.067 0.5-1.617 0.5-1.65v0c0-0.467-0.267-0.7-0.8-0.7v0c-0.733 0-1.843 0.517-3.33 1.55-1.48 1.033-3.003 2.773-4.57 5.22-1.567 2.453-2.833 5.663-3.8 9.63v0c-0.067 0.2-0.15 0.567-0.25 1.1-0.1 0.533-0.367 0.907-0.8 1.12-0.433 0.22-1.133 0.33-2.1 0.33v0c-1.1 0-1.91-0.117-2.43-0.35-0.513-0.233-0.77-0.733-0.77-1.5v0c0.1-0.467 0.25-1.033 0.45-1.7v0c1.933-7.767 3.417-13.75 4.45-17.95v0zM296.2-18.1l-3.15 12.6c0 0.767 0.2 1.373 0.6 1.82 0.4 0.453 0.967 0.68 1.7 0.68v0c1 0 1.823-0.293 2.47-0.88 0.653-0.58 1.347-1.403 2.08-2.47v0c0.533-0.767 0.967-1.317 1.3-1.65 0.333-0.333 0.717-0.5 1.15-0.5v0c0.867 0 1.483 0.107 1.85 0.32 0.367 0.22 0.55 0.663 0.55 1.33v0c0 0.3-0.033 0.657-0.1 1.07-0.067 0.42-0.15 0.73-0.25 0.93v0c-0.8 1.7-2.11 3.167-3.93 4.4-1.813 1.233-3.87 1.85-6.17 1.85v0c-2.3 0-4.033-0.56-5.2-1.68-1.167-1.113-1.75-2.703-1.75-4.77v0c0-0.3 0.15-1.083 0.45-2.35 0.3-1.267 0.683-2.783 1.15-4.55v0l1.4-5.7-3.05 0.25c-0.4 0-0.7-0.15-0.9-0.45-0.2-0.3-0.3-0.667-0.3-1.1v0c0-0.833 0.3-1.667 0.9-2.5v0c0.067-0.1 0.4-0.2 1-0.3 0.6-0.1 1.333-0.2 2.2-0.3v0l1.35-0.15 1.7-7.3c0.333-0.867 0.84-1.543 1.52-2.03 0.687-0.48 1.33-0.72 1.93-0.72v0c0.667 0 1.233 0.2 1.7 0.6 0.467 0.4 0.717 0.867 0.75 1.4v0l-1.8 7.5c1.3-0.167 2.507-0.31 3.62-0.43 1.12-0.113 1.997-0.17 2.63-0.17v0c1.267 0 1.9 0.733 1.9 2.2v0c0 0.567-0.243 1.073-0.73 1.52-0.48 0.453-1.003 0.73-1.57 0.83v0zM327.5-0.15c-0.133 0.567-0.433 0.96-0.9 1.18-0.467 0.213-1.083 0.32-1.85 0.32v0c-2.3 0-3.45-0.517-3.45-1.55v0l0.3-1.9c-0.933 0.7-2.033 1.4-3.3 2.1-1.267 0.7-2.317 1.05-3.15 1.05v0c-4.933 0-7.4-1.617-7.4-4.85v0c0-5.5 1.65-11.467 4.95-17.9v0c0.4-0.767 0.827-1.317 1.28-1.65 0.447-0.333 1.22-0.5 2.32-0.5v0c1.167 0 2.043 0.157 2.63 0.47 0.58 0.32 0.87 0.697 0.87 1.13v0c0 0.1-0.183 0.4-0.55 0.9v0c-0.367 0.433-0.683 0.867-0.95 1.3v0c-3.133 5.233-4.7 10.333-4.7 15.3v0c0 0.433 0.167 0.817 0.5 1.15 0.333 0.333 0.633 0.5 0.9 0.5v0c0.733 0 1.977-0.35 3.73-1.05 1.747-0.7 3.087-1.417 4.02-2.15v0l1-4.05c1.2-4.833 1.95-7.8 2.25-8.9v0c0.367-1.333 0.843-2.427 1.43-3.28 0.58-0.847 1.503-1.27 2.77-1.27v0c1.767 0 2.65 0.533 2.65 1.6v0c0 0.167-0.04 0.373-0.12 0.62-0.087 0.253-0.147 0.463-0.18 0.63v0l-2 8.1c-1.6 6.433-2.617 10.667-3.05 12.7zM340.15-1.9c-0.033 0.2-0.107 0.59-0.22 1.17-0.12 0.587-0.403 0.997-0.85 1.23-0.453 0.233-1.163 0.35-2.13 0.35v0c-1.1 0-1.9-0.117-2.4-0.35-0.5-0.233-0.75-0.733-0.75-1.5v0l2.4-9.55c1.333-5.5 2.217-9 2.65-10.5v0l-1.25-1.5c-0.1-0.1-0.15-0.217-0.15-0.35v0c0-0.333 0.367-0.61 1.1-0.83 0.733-0.213 1.75-0.32 3.05-0.32v0c1.167 0 1.95 0.323 2.35 0.97 0.4 0.653 0.65 1.497 0.75 2.53v0l-0.35 1.3c1.067-1.3 2.31-2.377 3.73-3.23 1.413-0.847 2.67-1.27 3.77-1.27v0c1.433 0 2.55 0.25 3.35 0.75 0.8 0.5 1.2 1.15 1.2 1.95v0c0 0.7-0.24 1.423-0.72 2.17-0.487 0.753-1.097 1.387-1.83 1.9-0.733 0.52-1.45 0.813-2.15 0.88v0c-0.667 0-1.117-0.083-1.35-0.25-0.233-0.167-0.35-0.417-0.35-0.75v0l0.3-1.65c-2.667 0.733-5.083 2.5-7.25 5.3v0zM363.95 1.05c-3.267 0-5.65-0.65-7.15-1.95-1.5-1.3-2.25-3.033-2.25-5.2v0c0-3.167 0.793-6.1 2.38-8.8 1.58-2.7 3.697-4.843 6.35-6.43 2.647-1.58 5.503-2.37 8.57-2.37v0c1.867 0 3.433 0.523 4.7 1.57 1.267 1.053 1.9 2.597 1.9 4.63v0c0 1.167-0.373 2.123-1.12 2.87-0.753 0.753-1.83 1.42-3.23 2-1.4 0.587-3.667 1.413-6.8 2.48v0c-2.833 0.933-5.133 1.717-6.9 2.35v0c-0.133 0.5-0.2 1.017-0.2 1.55v0c0 0.933 0.393 1.65 1.18 2.15 0.78 0.5 1.887 0.75 3.32 0.75v0c0.9 0 1.933-0.183 3.1-0.55 1.167-0.367 1.9-0.833 2.2-1.4v0c1.133-2.067 2.167-3.1 3.1-3.1v0c1.367 0 2.293 0.257 2.78 0.77 0.48 0.52 0.737 1.097 0.77 1.73v0c-0.4 1.067-1.183 2.14-2.35 3.22-1.167 1.087-2.65 1.98-4.45 2.68-1.8 0.7-3.767 1.05-5.9 1.05zM361.8-12.4c3.3-1.067 6.017-2.06 8.15-2.98 2.133-0.913 3.2-1.82 3.2-2.72v0c0-0.4-0.217-0.723-0.65-0.97-0.433-0.253-0.9-0.38-1.4-0.38v0c-1 0-2.14 0.383-3.42 1.15-1.287 0.767-2.48 1.7-3.58 2.8-1.1 1.1-1.867 2.133-2.3 3.1zM429.8-33.4c1.233 0.233 2.043 0.423 2.43 0.57 0.38 0.153 0.637 0.38 0.77 0.68v0c-0.7 2.7-1.617 6.523-2.75 11.47-1.133 4.953-1.9 8.28-2.3 9.98v0c-0.733 3.4-1.417 6.417-2.05 9.05v0c-0.467 1.833-1.2 2.75-2.2 2.75v0c-3.067 0-4.6-0.717-4.6-2.15v0c0 0.567 0.867-3.2 2.6-11.3v0l0.9-4.3-9.95 15.4c-0.533 0.667-1.317 1-2.35 1v0c-0.867 0-1.673-0.217-2.42-0.65-0.753-0.433-1.08-0.867-0.98-1.3v0l-2.75-16.15-4.1 16.55c-0.233 0.967-0.59 1.617-1.07 1.95-0.487 0.333-1.397 0.5-2.73 0.5v0c-1.033 0-1.79-0.173-2.27-0.52-0.487-0.353-0.73-0.947-0.73-1.78v0c0-0.367 0.05-0.717 0.15-1.05v0l6.85-27.05c0.367-1.467 0.76-2.443 1.18-2.93 0.413-0.48 1.17-0.72 2.27-0.72v0c0.9 0 1.7 0.1 2.4 0.3 0.7 0.2 1.067 0.5 1.1 0.9v0 0.1l4 24.85c1.433-2.3 3.793-6.1 7.08-11.4 3.28-5.3 5.853-9.433 7.72-12.4v0c0.333-0.833 0.71-1.377 1.13-1.63 0.413-0.247 0.893-0.42 1.44-0.52 0.553-0.1 0.963-0.167 1.23-0.2zM419.1-1.05zM443.45 1.05c-3.267 0-5.65-0.65-7.15-1.95-1.5-1.3-2.25-3.033-2.25-5.2v0c0-3.167 0.793-6.1 2.38-8.8 1.58-2.7 3.697-4.843 6.35-6.43 2.647-1.58 5.503-2.37 8.57-2.37v0c1.867 0 3.433 0.523 4.7 1.57 1.267 1.053 1.9 2.597 1.9 4.63v0c0 1.167-0.373 2.123-1.12 2.87-0.753 0.753-1.83 1.42-3.23 2-1.4 0.587-3.667 1.413-6.8 2.48v0c-2.833 0.933-5.133 1.717-6.9 2.35v0c-0.133 0.5-0.2 1.017-0.2 1.55v0c0 0.933 0.393 1.65 1.18 2.15 0.78 0.5 1.887 0.75 3.32 0.75v0c0.9 0 1.933-0.183 3.1-0.55 1.167-0.367 1.9-0.833 2.2-1.4v0c1.133-2.067 2.167-3.1 3.1-3.1v0c1.367 0 2.293 0.257 2.78 0.77 0.48 0.52 0.737 1.097 0.77 1.73v0c-0.4 1.067-1.183 2.14-2.35 3.22-1.167 1.087-2.65 1.98-4.45 2.68-1.8 0.7-3.767 1.05-5.9 1.05zM441.3-12.4c3.3-1.067 6.017-2.06 8.15-2.98 2.133-0.913 3.2-1.82 3.2-2.72v0c0-0.4-0.217-0.723-0.65-0.97-0.433-0.253-0.9-0.38-1.4-0.38v0c-1 0-2.14 0.383-3.42 1.15-1.287 0.767-2.48 1.7-3.58 2.8-1.1 1.1-1.867 2.133-2.3 3.1zM469.15 1.05c-3.267 0-5.65-0.65-7.15-1.95-1.5-1.3-2.25-3.033-2.25-5.2v0c0-3.167 0.793-6.1 2.38-8.8 1.58-2.7 3.697-4.843 6.35-6.43 2.647-1.58 5.503-2.37 8.57-2.37v0c1.867 0 3.433 0.523 4.7 1.57 1.267 1.053 1.9 2.597 1.9 4.63v0c0 1.167-0.373 2.123-1.12 2.87-0.753 0.753-1.83 1.42-3.23 2-1.4 0.587-3.667 1.413-6.8 2.48v0c-2.833 0.933-5.133 1.717-6.9 2.35v0c-0.133 0.5-0.2 1.017-0.2 1.55v0c0 0.933 0.39 1.65 1.17 2.15 0.787 0.5 1.897 0.75 3.33 0.75v0c0.9 0 1.933-0.183 3.1-0.55 1.167-0.367 1.9-0.833 2.2-1.4v0c1.133-2.067 2.167-3.1 3.1-3.1v0c1.367 0 2.29 0.257 2.77 0.77 0.487 0.52 0.747 1.097 0.78 1.73v0c-0.4 1.067-1.183 2.14-2.35 3.22-1.167 1.087-2.65 1.98-4.45 2.68-1.8 0.7-3.767 1.05-5.9 1.05zM467-12.4c3.3-1.067 6.017-2.06 8.15-2.98 2.133-0.913 3.2-1.82 3.2-2.72v0c0-0.4-0.217-0.723-0.65-0.97-0.433-0.253-0.9-0.38-1.4-0.38v0c-1 0-2.14 0.383-3.42 1.15-1.287 0.767-2.48 1.7-3.58 2.8-1.1 1.1-1.867 2.133-2.3 3.1zM496.25-18.1l-3.15 12.6c0 0.767 0.2 1.373 0.6 1.82 0.4 0.453 0.967 0.68 1.7 0.68v0c1 0 1.827-0.293 2.48-0.88 0.647-0.58 1.337-1.403 2.07-2.47v0c0.533-0.767 0.967-1.317 1.3-1.65 0.333-0.333 0.717-0.5 1.15-0.5v0c0.867 0 1.483 0.107 1.85 0.32 0.367 0.22 0.55 0.663 0.55 1.33v0c0 0.3-0.033 0.657-0.1 1.07-0.067 0.42-0.15 0.73-0.25 0.93v0c-0.8 1.7-2.11 3.167-3.93 4.4-1.813 1.233-3.87 1.85-6.17 1.85v0c-2.3 0-4.033-0.56-5.2-1.68-1.167-1.113-1.75-2.703-1.75-4.77v0c0-0.3 0.15-1.083 0.45-2.35 0.3-1.267 0.683-2.783 1.15-4.55v0l1.4-5.7-3.05 0.25c-0.4 0-0.7-0.15-0.9-0.45-0.2-0.3-0.3-0.667-0.3-1.1v0c0-0.833 0.3-1.667 0.9-2.5v0c0.067-0.1 0.4-0.2 1-0.3 0.6-0.1 1.333-0.2 2.2-0.3v0l1.35-0.15 1.7-7.3c0.333-0.867 0.84-1.543 1.52-2.03 0.687-0.48 1.33-0.72 1.93-0.72v0c0.667 0 1.233 0.2 1.7 0.6 0.467 0.4 0.717 0.867 0.75 1.4v0l-1.8 7.5c1.3-0.167 2.507-0.31 3.62-0.43 1.12-0.113 1.997-0.17 2.63-0.17v0c1.267 0 1.9 0.733 1.9 2.2v0c0 0.567-0.243 1.073-0.73 1.52-0.48 0.453-1.003 0.73-1.57 0.83v0zM524.1-19.35c-0.4-0.2-0.9-0.3-1.5-0.3v0c-1.5 0-3 0.3-4.5 0.9-1.5 0.6-2.25 1.367-2.25 2.3v0c0 0.667 0.3 1.2 0.9 1.6 0.6 0.4 1.55 0.85 2.85 1.35v0c1.4 0.567 2.533 1.1 3.4 1.6 0.867 0.5 1.623 1.223 2.27 2.17 0.653 0.953 0.98 2.163 0.98 3.63v0c0 2.4-0.993 4.24-2.98 5.52-1.98 1.287-4.637 1.93-7.97 1.93v0c-1.633 0-3.15-0.25-4.55-0.75-1.4-0.5-2.507-1.143-3.32-1.93-0.82-0.78-1.263-1.553-1.33-2.32v0c0-0.8 0.35-1.46 1.05-1.98 0.7-0.513 1.683-0.853 2.95-1.02v0c0.033 0.667 0.383 1.29 1.05 1.87 0.667 0.587 1.457 1.053 2.37 1.4 0.92 0.353 1.713 0.53 2.38 0.53v0c1.133 0 2.167-0.31 3.1-0.93 0.933-0.613 1.4-1.337 1.4-2.17v0c0-1.533-1.483-2.75-4.45-3.65v0c-1.9-0.567-3.357-1.467-4.37-2.7-1.02-1.233-1.53-2.533-1.53-3.9v0c0-2.7 1.227-4.643 3.68-5.83 2.447-1.18 5.57-1.77 9.37-1.77v0c2.133 0 3.783 0.25 4.95 0.75 1.167 0.5 1.75 1.367 1.75 2.6v0c0 0.833-0.307 1.567-0.92 2.2-0.62 0.633-1.497 0.95-2.63 0.95v0c-1 0-1.64-0.077-1.92-0.23-0.287-0.147-0.447-0.403-0.48-0.77v0c0-0.333 0.083-0.683 0.25-1.05zM569.6-3.95c0.4 0.067 0.867 0.433 1.4 1.1 0.533 0.667 0.8 1.283 0.8 1.85v0c0 0.367-0.283 0.65-0.85 0.85v0c-0.2 0.067-0.523 0.193-0.97 0.38-0.453 0.18-0.863 0.303-1.23 0.37-0.367 0.067-0.783 0.1-1.25 0.1v0c-0.7 0-1.233-0.083-1.6-0.25v0c-0.933-0.4-2.15-1.333-3.65-2.8-1.5-1.467-2.95-3.143-4.35-5.03-1.4-1.88-2.433-3.637-3.1-5.27v0h-0.3c-0.933 0-1.617-0.017-2.05-0.05v0c-1 3.7-1.833 6.933-2.5 9.7v0c-0.267 1.167-0.673 2.067-1.22 2.7-0.553 0.633-1.447 0.95-2.68 0.95v0c-1.033 0-1.793-0.173-2.28-0.52-0.48-0.353-0.72-0.947-0.72-1.78v0c0-0.367 0.05-0.717 0.15-1.05v0l6.05-23.35c-1.733 0.5-3.05 1.183-3.95 2.05v0c-0.367-0.4-0.657-0.927-0.87-1.58-0.22-0.647-0.33-1.287-0.33-1.92v0c0-0.467 0.14-0.843 0.42-1.13 0.287-0.28 0.68-0.537 1.18-0.77v0c0.167-0.1 0.773-0.4 1.82-0.9 1.053-0.5 2.063-0.883 3.03-1.15v0c0.3-0.667 0.76-1.217 1.38-1.65 0.613-0.433 1.403-0.65 2.37-0.65v0c0.567 0 1.033 0.107 1.4 0.32 0.367 0.22 0.617 0.497 0.75 0.83v0c1.233-0.4 2.717-0.6 4.45-0.6v0c2.133 0 3.993 0.423 5.58 1.27 1.58 0.853 2.787 1.947 3.62 3.28 0.833 1.333 1.25 2.683 1.25 4.05v0c0 3.033-0.973 5.46-2.92 7.28-1.953 1.813-4.463 3.103-7.53 3.87v0c0.7 1.2 1.633 2.55 2.8 4.05 1.167 1.5 2.273 2.773 3.32 3.82 1.053 1.053 1.747 1.58 2.08 1.58v0zM555.9-27.4c-0.967 3.867-1.767 7.217-2.4 10.05v0c0.4 0.033 0.967 0.05 1.7 0.05v0c1.6 0 3.2-0.243 4.8-0.73 1.6-0.48 2.94-1.203 4.02-2.17 1.087-0.967 1.63-2.167 1.63-3.6v0c0-1.3-0.533-2.343-1.6-3.13-1.067-0.78-2.5-1.17-4.3-1.17v0c-1 0-2.283 0.233-3.85 0.7zM583.05 1.05c-3.267 0-5.65-0.65-7.15-1.95-1.5-1.3-2.25-3.033-2.25-5.2v0c0-3.167 0.793-6.1 2.38-8.8 1.58-2.7 3.697-4.843 6.35-6.43 2.647-1.58 5.503-2.37 8.57-2.37v0c1.867 0 3.433 0.523 4.7 1.57 1.267 1.053 1.9 2.597 1.9 4.63v0c0 1.167-0.373 2.123-1.12 2.87-0.753 0.753-1.83 1.42-3.23 2-1.4 0.587-3.667 1.413-6.8 2.48v0c-2.833 0.933-5.133 1.717-6.9 2.35v0c-0.133 0.5-0.2 1.017-0.2 1.55v0c0 0.933 0.393 1.65 1.18 2.15 0.78 0.5 1.887 0.75 3.32 0.75v0c0.9 0 1.933-0.183 3.1-0.55 1.167-0.367 1.9-0.833 2.2-1.4v0c1.133-2.067 2.167-3.1 3.1-3.1v0c1.367 0 2.293 0.257 2.78 0.77 0.48 0.52 0.737 1.097 0.77 1.73v0c-0.4 1.067-1.183 2.14-2.35 3.22-1.167 1.087-2.65 1.98-4.45 2.68-1.8 0.7-3.767 1.05-5.9 1.05zM580.9-12.4c3.3-1.067 6.017-2.06 8.15-2.98 2.133-0.913 3.2-1.82 3.2-2.72v0c0-0.4-0.217-0.723-0.65-0.97-0.433-0.253-0.9-0.38-1.4-0.38v0c-1 0-2.14 0.383-3.42 1.15-1.287 0.767-2.48 1.7-3.58 2.8-1.1 1.1-1.867 2.133-2.3 3.1zM613.8-35.85l-2.1 8.65c-3.767 15.833-5.983 24.883-6.65 27.15v0c-0.067 0.2-0.407 0.46-1.02 0.78-0.62 0.313-1.047 0.47-1.28 0.47v0c-0.933 0-1.833-0.233-2.7-0.7-0.867-0.467-1.333-1.217-1.4-2.25v0c0.033-0.067 0.2-0.417 0.5-1.05 0.3-0.633 0.6-1.533 0.9-2.7v0c0.767-2.867 1.643-6.267 2.63-10.2 0.98-3.933 1.637-6.567 1.97-7.9v0l2.35-9.55c-0.033-0.267-0.05-1.65-0.05-4.15v0c0.1-0.433 0.477-0.783 1.13-1.05 0.647-0.267 1.237-0.4 1.77-0.4v0c0.833 0 1.693 0.283 2.58 0.85 0.88 0.567 1.337 1.25 1.37 2.05zM633-2.6c0.067 0.867 0.183 1.65 0.35 2.35v0c-0.067 0.2-0.357 0.4-0.87 0.6-0.52 0.2-0.963 0.3-1.33 0.3v0c-1.2 0-2.057-0.173-2.57-0.52-0.52-0.353-0.78-0.88-0.78-1.58v0c0-0.667 0.067-1.333 0.2-2v0c-0.733 1-1.807 1.823-3.22 2.47-1.42 0.653-2.563 0.98-3.43 0.98v0c-2.233 0-4.09-0.65-5.57-1.95-1.487-1.3-2.23-3.383-2.23-6.25v0c0-2.7 0.643-5.243 1.93-7.63 1.28-2.38 3.053-4.297 5.32-5.75 2.267-1.447 4.783-2.17 7.55-2.17v0c0.533 0 1.233 0.14 2.1 0.42 0.867 0.287 1.743 0.77 2.63 1.45 0.88 0.687 1.62 1.563 2.22 2.63v0c0.267 0 0.583 0.133 0.95 0.4 0.367 0.267 0.55 0.533 0.55 0.8v0c0 0.3-0.05 0.6-0.15 0.9v0zM630.75-16.6c-0.2-0.733-0.59-1.35-1.17-1.85-0.587-0.5-1.113-0.75-1.58-0.75v0c-1.533 0-2.973 0.543-4.32 1.63-1.353 1.08-2.447 2.42-3.28 4.02-0.833 1.6-1.25 3.117-1.25 4.55v0c0 1.4 0.167 2.55 0.5 3.45 0.333 0.9 0.983 1.35 1.95 1.35v0c0.833 0 1.793-0.25 2.88-0.75 1.08-0.5 2.047-1.177 2.9-2.03 0.847-0.847 1.403-1.737 1.67-2.67v0zM660.55-24.5c1.067 0 1.75 0.25 2.05 0.75 0.3 0.5 0.45 1.117 0.45 1.85v0c0 0.5-0.067 0.84-0.2 1.02-0.133 0.187-0.4 0.397-0.8 0.63v0c-0.6 0.4-1.15 0.8-1.65 1.2v0c-0.667 0.6-2.983 3.133-6.95 7.6v0c1.5 2.7 2.917 5.133 4.25 7.3v0c0.633 1 0.95 1.917 0.95 2.75v0c0 0.467-0.25 0.883-0.75 1.25v0c-0.4 0.3-0.967 0.45-1.7 0.45v0c-0.733 0-1.683-0.683-2.85-2.05v0c-1-1.233-2.233-3.05-3.7-5.45v0c-3.933 4.433-6.35 6.967-7.25 7.6v0c-0.567 0.4-1.217 0.6-1.95 0.6v0c-0.433 0-0.917-0.257-1.45-0.77-0.533-0.52-0.8-1.013-0.8-1.48v0c0-0.3 0.017-0.533 0.05-0.7v0l1-0.9c0.6-0.533 3.25-3.433 7.95-8.7v0c-1.067-2.067-1.933-3.99-2.6-5.77-0.667-1.787-1-3.213-1-4.28v0c0-0.967 0.3-1.617 0.9-1.95 0.6-0.333 1.483-0.5 2.65-0.5v0c0.567 0 1.133 0.14 1.7 0.42 0.567 0.287 0.85 0.663 0.85 1.13v0l-0.05 0.75c0 1.433 0.5 3.3 1.5 5.6v0c2.3-2.7 4.243-4.767 5.83-6.2 1.58-1.433 2.77-2.15 3.57-2.15zM683.65-2.6c0.067 0.867 0.183 1.65 0.35 2.35v0c-0.067 0.2-0.357 0.4-0.87 0.6-0.52 0.2-0.963 0.3-1.33 0.3v0c-1.2 0-2.057-0.173-2.57-0.52-0.52-0.353-0.78-0.88-0.78-1.58v0c0-0.667 0.067-1.333 0.2-2v0c-0.733 1-1.807 1.823-3.22 2.47-1.42 0.653-2.563 0.98-3.43 0.98v0c-2.233 0-4.09-0.65-5.57-1.95-1.487-1.3-2.23-3.383-2.23-6.25v0c0-2.7 0.643-5.243 1.93-7.63 1.28-2.38 3.053-4.297 5.32-5.75 2.267-1.447 4.783-2.17 7.55-2.17v0c0.533 0 1.233 0.14 2.1 0.42 0.867 0.287 1.743 0.77 2.63 1.45 0.88 0.687 1.62 1.563 2.22 2.63v0c0.267 0 0.583 0.133 0.95 0.4 0.367 0.267 0.55 0.533 0.55 0.8v0c0 0.3-0.05 0.6-0.15 0.9v0zM681.4-16.6c-0.2-0.733-0.59-1.35-1.17-1.85-0.587-0.5-1.113-0.75-1.58-0.75v0c-1.533 0-2.973 0.543-4.32 1.63-1.353 1.08-2.447 2.42-3.28 4.02-0.833 1.6-1.25 3.117-1.25 4.55v0c0 1.4 0.167 2.55 0.5 3.45 0.333 0.9 0.983 1.35 1.95 1.35v0c0.833 0 1.793-0.25 2.88-0.75 1.08-0.5 2.047-1.177 2.9-2.03 0.847-0.847 1.403-1.737 1.67-2.67v0zM700.15-18.1l-3.15 12.6c0 0.767 0.2 1.373 0.6 1.82 0.4 0.453 0.967 0.68 1.7 0.68v0c1 0 1.827-0.293 2.48-0.88 0.647-0.58 1.337-1.403 2.07-2.47v0c0.533-0.767 0.967-1.317 1.3-1.65 0.333-0.333 0.717-0.5 1.15-0.5v0c0.867 0 1.483 0.107 1.85 0.32 0.367 0.22 0.55 0.663 0.55 1.33v0c0 0.3-0.033 0.657-0.1 1.07-0.067 0.42-0.15 0.73-0.25 0.93v0c-0.8 1.7-2.107 3.167-3.92 4.4-1.82 1.233-3.88 1.85-6.18 1.85v0c-2.3 0-4.033-0.56-5.2-1.68-1.167-1.113-1.75-2.703-1.75-4.77v0c0-0.3 0.15-1.083 0.45-2.35 0.3-1.267 0.683-2.783 1.15-4.55v0l1.4-5.7-3.05 0.25c-0.4 0-0.7-0.15-0.9-0.45-0.2-0.3-0.3-0.667-0.3-1.1v0c0-0.833 0.3-1.667 0.9-2.5v0c0.067-0.1 0.4-0.2 1-0.3 0.6-0.1 1.333-0.2 2.2-0.3v0l1.35-0.15 1.7-7.3c0.333-0.867 0.843-1.543 1.53-2.03 0.68-0.48 1.32-0.72 1.92-0.72v0c0.667 0 1.233 0.2 1.7 0.6 0.467 0.4 0.717 0.867 0.75 1.4v0l-1.8 7.5c1.3-0.167 2.51-0.31 3.63-0.43 1.113-0.113 1.987-0.17 2.62-0.17v0c1.267 0 1.9 0.733 1.9 2.2v0c0 0.567-0.24 1.073-0.72 1.52-0.487 0.453-1.013 0.73-1.58 0.83v0zM717.25-29.7c0-1.033 0.327-1.95 0.98-2.75 0.647-0.8 1.553-1.2 2.72-1.2v0c1.233 0 2.31 0.383 3.23 1.15 0.913 0.767 1.37 1.633 1.37 2.6v0c0 0.967-0.467 1.8-1.4 2.5-0.933 0.7-2.017 1.05-3.25 1.05v0c-1.2 0-2.107-0.31-2.72-0.93-0.62-0.613-0.93-1.42-0.93-2.42zM722.5-20.85c-1.767 7.2-3.117 12.617-4.05 16.25v0c-0.133 0.533-0.2 1.117-0.2 1.75v0l0.05 1.4c0 0.567-0.173 0.967-0.52 1.2-0.353 0.233-1.097 0.367-2.23 0.4v0c-1.1 0-1.933-0.117-2.5-0.35-0.567-0.233-0.85-0.733-0.85-1.5v0c0-0.367 0.427-2.317 1.28-5.85 0.847-3.533 2.003-8.133 3.47-13.8v0l-1.15-1.5c-0.1-0.1-0.15-0.217-0.15-0.35v0c0-0.333 0.367-0.61 1.1-0.83 0.733-0.213 1.75-0.32 3.05-0.32v0c1.133 0 1.86 0.323 2.18 0.97 0.313 0.653 0.487 1.497 0.52 2.53zM734.9 1.05c-2.933 0-5.217-1-6.85-3-1.633-2-2.45-4.55-2.45-7.65v0c0-2.6 0.627-5.05 1.88-7.35 1.247-2.3 2.953-4.15 5.12-5.55 2.167-1.4 4.55-2.1 7.15-2.1v0c2.567 0 4.677 0.84 6.33 2.52 1.647 1.687 2.47 4.163 2.47 7.43v0c0 2.3-0.633 4.683-1.9 7.15-1.267 2.467-2.957 4.507-5.07 6.12-2.12 1.62-4.347 2.43-6.68 2.43zM735.65-2.95c1.067 0 2.143-0.667 3.23-2 1.08-1.333 1.97-3.017 2.67-5.05 0.7-2.033 1.05-4.017 1.05-5.95v0c0-2.967-1.233-4.45-3.7-4.45v0c-1.367 0-2.617 0.65-3.75 1.95-1.133 1.3-2.033 2.907-2.7 4.82-0.667 1.92-1 3.713-1 5.38v0c0 0.967 0.217 1.857 0.65 2.67 0.433 0.82 0.977 1.463 1.63 1.93 0.647 0.467 1.287 0.7 1.92 0.7zM753.85-22.85c-0.1-0.1-0.15-0.217-0.15-0.35v0c0-0.333 0.367-0.61 1.1-0.83 0.733-0.213 1.75-0.32 3.05-0.32v0c1.2 0 2.083 0.307 2.65 0.92 0.567 0.62 0.9 1.363 1 2.23v0l-0.9 3.25c0.7-0.967 1.683-1.893 2.95-2.78 1.267-0.88 2.55-1.587 3.85-2.12 1.3-0.533 2.367-0.8 3.2-0.8v0c1.767 0 3.05 0.323 3.85 0.97 0.8 0.653 1.2 1.68 1.2 3.08v0c-1.967 5.133-3.267 10.667-3.9 16.6v0l0.7 2.45c-0.4 0.767-0.957 1.377-1.67 1.83-0.72 0.447-1.763 0.67-3.13 0.67v0c-0.8 0-1.383-0.267-1.75-0.8-0.367-0.533-0.55-1.2-0.55-2v0c0-2.233 0.327-4.69 0.98-7.37 0.647-2.687 1.403-5.43 2.27-8.23v0c0.333-1.067 0.5-1.617 0.5-1.65v0c0-0.467-0.267-0.7-0.8-0.7v0c-0.733 0-1.84 0.517-3.32 1.55-1.487 1.033-3.013 2.773-4.58 5.22-1.567 2.453-2.833 5.663-3.8 9.63v0c-0.067 0.2-0.15 0.567-0.25 1.1-0.1 0.533-0.367 0.907-0.8 1.12-0.433 0.22-1.133 0.33-2.1 0.33v0c-1.1 0-1.907-0.117-2.42-0.35-0.52-0.233-0.78-0.733-0.78-1.5v0c0.1-0.467 0.25-1.033 0.45-1.7v0c1.933-7.767 3.417-13.75 4.45-17.95v0z" fill="#ff4057" fill-rule="nonzero" stroke="none" stroke-width="1" stroke-linecap="butt" stroke-linejoin="miter" stroke-miterlimit="10" stroke-dasharray="" stroke-dashoffset="0" font-family="none" font-weight="none" font-size="none" text-anchor="none" style="mix-blend-mode: normal" data-fill-palette-color="secondary"/>
                </g>
              </g>
              <g transform="matrix(1,0,0,1,29.33176499999999,67.98310152352835)">
                <svg viewBox="0 0 316.416 107.1258009529433" height="107.1258009529433" width="316.416">
                  <g>
                    <svg viewBox="0 0 509.14430245634685 172.37589502826586" height="107.1258009529433" width="316.416">
                      <g transform="matrix(1,0,0,1,192.72830245634688,23.823296635599704)">
                        <svg viewBox="0 0 316.416 124.72930175706645" height="124.72930175706645" width="316.416">
                          <g>
                            <svg viewBox="0 0 316.416 124.72930175706645" height="124.72930175706645" width="316.416">
                              <g>
                                <svg viewBox="0 0 316.416 124.72930175706645" height="124.72930175706645" width="316.416">
                                  <g transform="matrix(1,0,0,1,0,0)">
                                    <svg width="316.416" viewBox="71.58 -34.300000000000004 196.34999999999997 74.4" height="124.72930175706645" data-palette-color="#ff4057">
                                      <svg/>
                                      <svg/>
                                      <g class="undefined-text-0" data-fill-palette-color="primary" id="text-0">
                                        <path transform="translate(71.38,0)" d="M30.9-33.4c1.233 0.233 2.043 0.423 2.43 0.57 0.38 0.153 0.637 0.38 0.77 0.68v0c-0.7 2.7-1.617 6.523-2.75 11.47-1.133 4.953-1.9 8.28-2.3 9.98v0c-0.733 3.4-1.417 6.417-2.05 9.05v0c-0.467 1.833-1.2 2.75-2.2 2.75v0c-2.633 0-4.133-0.533-4.5-1.6v0l-0.1 0.1-8.15-21.8-3.1 12.6c-0.6 2.3-1.25 4.9-1.95 7.8v0c-0.233 0.967-0.59 1.617-1.07 1.95-0.487 0.333-1.397 0.5-2.73 0.5v0c-1.033 0-1.79-0.173-2.27-0.52-0.487-0.353-0.73-0.947-0.73-1.78v0c0-0.367 0.05-0.717 0.15-1.05v0l6.85-27.05c0.367-1.467 0.76-2.443 1.18-2.93 0.413-0.48 1.17-0.72 2.27-0.72v0c0.9 0 1.7 0.1 2.4 0.3 0.7 0.2 1.067 0.5 1.1 0.9v0 0.15l8.05 22.3c2.167-10.467 3.55-16.617 4.15-18.45v0c0.467-1.4 1.1-2.567 1.9-3.5 0.8-0.933 1.683-1.5 2.65-1.7zM14.1-32.25zM20.2-1.05zM54.75-2.6c0.067 0.867 0.183 1.65 0.35 2.35v0c-0.067 0.2-0.357 0.4-0.87 0.6-0.52 0.2-0.963 0.3-1.33 0.3v0c-1.2 0-2.057-0.173-2.57-0.52-0.52-0.353-0.78-0.88-0.78-1.58v0c0-0.667 0.067-1.333 0.2-2v0c-0.733 1-1.81 1.823-3.23 2.47-1.413 0.653-2.553 0.98-3.42 0.98v0c-2.233 0-4.093-0.65-5.58-1.95-1.48-1.3-2.22-3.383-2.22-6.25v0c0-2.7 0.643-5.243 1.93-7.63 1.28-2.38 3.053-4.297 5.32-5.75 2.267-1.447 4.783-2.17 7.55-2.17v0c0.533 0 1.233 0.14 2.1 0.42 0.867 0.287 1.743 0.77 2.63 1.45 0.88 0.687 1.62 1.563 2.22 2.63v0c0.267 0 0.583 0.133 0.95 0.4 0.367 0.267 0.55 0.533 0.55 0.8v0c0 0.3-0.05 0.6-0.15 0.9v0zM52.5-16.6c-0.2-0.733-0.59-1.35-1.17-1.85-0.587-0.5-1.113-0.75-1.58-0.75v0c-1.533 0-2.977 0.543-4.33 1.63-1.347 1.08-2.437 2.42-3.27 4.02-0.833 1.6-1.25 3.117-1.25 4.55v0c0 1.4 0.167 2.55 0.5 3.45 0.333 0.9 0.983 1.35 1.95 1.35v0c0.833 0 1.793-0.25 2.88-0.75 1.08-0.5 2.047-1.177 2.9-2.03 0.847-0.847 1.403-1.737 1.67-2.67v0zM71.25-18.1l-3.15 12.6c0 0.767 0.2 1.373 0.6 1.82 0.4 0.453 0.967 0.68 1.7 0.68v0c1 0 1.827-0.293 2.48-0.88 0.647-0.58 1.337-1.403 2.07-2.47v0c0.533-0.767 0.967-1.317 1.3-1.65 0.333-0.333 0.717-0.5 1.15-0.5v0c0.867 0 1.483 0.107 1.85 0.32 0.367 0.22 0.55 0.663 0.55 1.33v0c0 0.3-0.033 0.657-0.1 1.07-0.067 0.42-0.15 0.73-0.25 0.93v0c-0.8 1.7-2.107 3.167-3.92 4.4-1.82 1.233-3.88 1.85-6.18 1.85v0c-2.3 0-4.033-0.56-5.2-1.68-1.167-1.113-1.75-2.703-1.75-4.77v0c0-0.3 0.15-1.083 0.45-2.35 0.3-1.267 0.683-2.783 1.15-4.55v0l1.4-5.7-3.05 0.25c-0.4 0-0.7-0.15-0.9-0.45-0.2-0.3-0.3-0.667-0.3-1.1v0c0-0.833 0.3-1.667 0.9-2.5v0c0.067-0.1 0.4-0.2 1-0.3 0.6-0.1 1.333-0.2 2.2-0.3v0l1.35-0.15 1.7-7.3c0.333-0.867 0.843-1.543 1.53-2.03 0.68-0.48 1.32-0.72 1.92-0.72v0c0.667 0 1.233 0.2 1.7 0.6 0.467 0.4 0.717 0.867 0.75 1.4v0l-1.8 7.5c1.3-0.167 2.51-0.31 3.63-0.43 1.113-0.113 1.987-0.17 2.62-0.17v0c1.267 0 1.9 0.733 1.9 2.2v0c0 0.567-0.24 1.073-0.72 1.52-0.487 0.453-1.013 0.73-1.58 0.83v0zM102.55-0.15c-0.133 0.567-0.433 0.96-0.9 1.18-0.467 0.213-1.083 0.32-1.85 0.32v0c-2.3 0-3.45-0.517-3.45-1.55v0l0.3-1.9c-0.933 0.7-2.033 1.4-3.3 2.1-1.267 0.7-2.317 1.05-3.15 1.05v0c-4.933 0-7.4-1.617-7.4-4.85v0c0-5.5 1.65-11.467 4.95-17.9v0c0.4-0.767 0.823-1.317 1.27-1.65 0.453-0.333 1.23-0.5 2.33-0.5v0c1.167 0 2.04 0.157 2.62 0.47 0.587 0.32 0.88 0.697 0.88 1.13v0c0 0.1-0.183 0.4-0.55 0.9v0c-0.367 0.433-0.683 0.867-0.95 1.3v0c-3.133 5.233-4.7 10.333-4.7 15.3v0c0 0.433 0.167 0.817 0.5 1.15 0.333 0.333 0.633 0.5 0.9 0.5v0c0.733 0 1.973-0.35 3.72-1.05 1.753-0.7 3.097-1.417 4.03-2.15v0l1-4.05c1.2-4.833 1.95-7.8 2.25-8.9v0c0.367-1.333 0.84-2.427 1.42-3.28 0.587-0.847 1.513-1.27 2.78-1.27v0c1.767 0 2.65 0.533 2.65 1.6v0c0 0.167-0.043 0.373-0.13 0.62-0.08 0.253-0.137 0.463-0.17 0.63v0l-2 8.1c-1.6 6.433-2.617 10.667-3.05 12.7zM115.2-1.9c-0.033 0.2-0.11 0.59-0.23 1.17-0.113 0.587-0.397 0.997-0.85 1.23-0.447 0.233-1.153 0.35-2.12 0.35v0c-1.1 0-1.9-0.117-2.4-0.35-0.5-0.233-0.75-0.733-0.75-1.5v0l2.4-9.55c1.333-5.5 2.217-9 2.65-10.5v0l-1.25-1.5c-0.1-0.1-0.15-0.217-0.15-0.35v0c0-0.333 0.367-0.61 1.1-0.83 0.733-0.213 1.75-0.32 3.05-0.32v0c1.167 0 1.95 0.323 2.35 0.97 0.4 0.653 0.65 1.497 0.75 2.53v0l-0.35 1.3c1.067-1.3 2.31-2.377 3.73-3.23 1.413-0.847 2.67-1.27 3.77-1.27v0c1.433 0 2.55 0.25 3.35 0.75 0.8 0.5 1.2 1.15 1.2 1.95v0c0 0.7-0.243 1.423-0.73 2.17-0.48 0.753-1.087 1.387-1.82 1.9-0.733 0.52-1.45 0.813-2.15 0.88v0c-0.667 0-1.117-0.083-1.35-0.25-0.233-0.167-0.35-0.417-0.35-0.75v0l0.3-1.65c-2.667 0.733-5.083 2.5-7.25 5.3v0zM139 1.05c-3.267 0-5.65-0.65-7.15-1.95-1.5-1.3-2.25-3.033-2.25-5.2v0c0-3.167 0.79-6.1 2.37-8.8 1.587-2.7 3.703-4.843 6.35-6.43 2.653-1.58 5.513-2.37 8.58-2.37v0c1.867 0 3.433 0.523 4.7 1.57 1.267 1.053 1.9 2.597 1.9 4.63v0c0 1.167-0.377 2.123-1.13 2.87-0.747 0.753-1.82 1.42-3.22 2-1.4 0.587-3.667 1.413-6.8 2.48v0c-2.833 0.933-5.133 1.717-6.9 2.35v0c-0.133 0.5-0.2 1.017-0.2 1.55v0c0 0.933 0.39 1.65 1.17 2.15 0.787 0.5 1.897 0.75 3.33 0.75v0c0.9 0 1.933-0.183 3.1-0.55 1.167-0.367 1.9-0.833 2.2-1.4v0c1.133-2.067 2.167-3.1 3.1-3.1v0c1.367 0 2.29 0.257 2.77 0.77 0.487 0.52 0.747 1.097 0.78 1.73v0c-0.4 1.067-1.183 2.14-2.35 3.22-1.167 1.087-2.65 1.98-4.45 2.68-1.8 0.7-3.767 1.05-5.9 1.05zM136.85-12.4c3.3-1.067 6.017-2.06 8.15-2.98 2.133-0.913 3.2-1.82 3.2-2.72v0c0-0.4-0.217-0.723-0.65-0.97-0.433-0.253-0.9-0.38-1.4-0.38v0c-1 0-2.143 0.383-3.43 1.15-1.28 0.767-2.47 1.7-3.57 2.8-1.1 1.1-1.867 2.133-2.3 3.1zM170.4-31.55c-0.1 0.6-0.35 1.457-0.75 2.57-0.4 1.12-0.65 1.813-0.75 2.08v0c-0.9 2.3-1.483 4.017-1.75 5.15v0c-0.2 0.8-0.577 1.39-1.13 1.77-0.547 0.387-1.303 0.58-2.27 0.58v0c-0.867 0-1.433-0.143-1.7-0.43-0.267-0.28-0.4-0.77-0.4-1.47v0-0.7l1.65-8.75c0.233-1.233 0.65-2.133 1.25-2.7 0.6-0.567 1.5-0.85 2.7-0.85v0c1.067 0 1.857 0.25 2.37 0.75 0.52 0.5 0.78 1.167 0.78 2zM190.85-19.35c-0.4-0.2-0.9-0.3-1.5-0.3v0c-1.5 0-3 0.3-4.5 0.9-1.5 0.6-2.25 1.367-2.25 2.3v0c0 0.667 0.3 1.2 0.9 1.6 0.6 0.4 1.55 0.85 2.85 1.35v0c1.4 0.567 2.533 1.1 3.4 1.6 0.867 0.5 1.623 1.223 2.27 2.17 0.653 0.953 0.98 2.163 0.98 3.63v0c0 2.4-0.993 4.24-2.98 5.52-1.98 1.287-4.637 1.93-7.97 1.93v0c-1.633 0-3.15-0.25-4.55-0.75-1.4-0.5-2.51-1.143-3.33-1.93-0.813-0.78-1.253-1.553-1.32-2.32v0c0-0.8 0.35-1.46 1.05-1.98 0.7-0.513 1.683-0.853 2.95-1.02v0c0.033 0.667 0.383 1.29 1.05 1.87 0.667 0.587 1.457 1.053 2.37 1.4 0.92 0.353 1.713 0.53 2.38 0.53v0c1.133 0 2.167-0.31 3.1-0.93 0.933-0.613 1.4-1.337 1.4-2.17v0c0-1.533-1.483-2.75-4.45-3.65v0c-1.9-0.567-3.36-1.467-4.38-2.7-1.013-1.233-1.52-2.533-1.52-3.9v0c0-2.7 1.223-4.643 3.67-5.83 2.453-1.18 5.58-1.77 9.38-1.77v0c2.133 0 3.783 0.25 4.95 0.75 1.167 0.5 1.75 1.367 1.75 2.6v0c0 0.833-0.31 1.567-0.93 2.2-0.613 0.633-1.487 0.95-2.62 0.95v0c-1 0-1.643-0.077-1.93-0.23-0.28-0.147-0.437-0.403-0.47-0.77v0c0-0.333 0.083-0.683 0.25-1.05z" fill="#ff4057" fill-rule="nonzero" stroke="none" stroke-width="1" stroke-linecap="butt" stroke-linejoin="miter" stroke-miterlimit="10" stroke-dasharray="" stroke-dashoffset="0" font-family="none" font-weight="none" font-size="none" text-anchor="none" style="mix-blend-mode: normal" data-fill-palette-color="primary" opacity="1"/>
                                        <path transform="translate(84.78,38.7)" d="M27-3.95c0.4 0.067 0.867 0.433 1.4 1.1 0.533 0.667 0.8 1.283 0.8 1.85v0c0 0.367-0.283 0.65-0.85 0.85v0c-0.2 0.067-0.523 0.193-0.97 0.38-0.453 0.18-0.863 0.303-1.23 0.37-0.367 0.067-0.783 0.1-1.25 0.1v0c-0.7 0-1.233-0.083-1.6-0.25v0c-0.933-0.4-2.15-1.333-3.65-2.8-1.5-1.467-2.95-3.143-4.35-5.03-1.4-1.88-2.433-3.637-3.1-5.27v0h-0.3c-0.933 0-1.617-0.017-2.05-0.05v0c-1 3.7-1.833 6.933-2.5 9.7v0c-0.267 1.167-0.673 2.067-1.22 2.7-0.553 0.633-1.447 0.95-2.68 0.95v0c-1.033 0-1.79-0.173-2.27-0.52-0.487-0.353-0.73-0.947-0.73-1.78v0c0-0.367 0.05-0.717 0.15-1.05v0l6.05-23.35c-1.733 0.5-3.05 1.183-3.95 2.05v0c-0.367-0.4-0.657-0.927-0.87-1.58-0.22-0.647-0.33-1.287-0.33-1.92v0c0-0.467 0.143-0.843 0.43-1.13 0.28-0.28 0.67-0.537 1.17-0.77v0c0.167-0.1 0.777-0.4 1.83-0.9 1.047-0.5 2.053-0.883 3.02-1.15v0c0.3-0.667 0.76-1.217 1.38-1.65 0.613-0.433 1.403-0.65 2.37-0.65v0c0.567 0 1.033 0.107 1.4 0.32 0.367 0.22 0.617 0.497 0.75 0.83v0c1.233-0.4 2.717-0.6 4.45-0.6v0c2.133 0 3.993 0.423 5.58 1.27 1.58 0.853 2.787 1.947 3.62 3.28 0.833 1.333 1.25 2.683 1.25 4.05v0c0 3.033-0.973 5.46-2.92 7.28-1.953 1.813-4.463 3.103-7.53 3.87v0c0.7 1.2 1.633 2.55 2.8 4.05 1.167 1.5 2.277 2.773 3.33 3.82 1.047 1.053 1.737 1.58 2.07 1.58v0zM13.3-27.4c-0.967 3.867-1.767 7.217-2.4 10.05v0c0.4 0.033 0.967 0.05 1.7 0.05v0c1.6 0 3.2-0.243 4.8-0.73 1.6-0.48 2.943-1.203 4.03-2.17 1.08-0.967 1.62-2.167 1.62-3.6v0c0-1.3-0.533-2.343-1.6-3.13-1.067-0.78-2.5-1.17-4.3-1.17v0c-1 0-2.283 0.233-3.85 0.7zM40.45 1.05c-3.267 0-5.65-0.65-7.15-1.95-1.5-1.3-2.25-3.033-2.25-5.2v0c0-3.167 0.793-6.1 2.38-8.8 1.58-2.7 3.697-4.843 6.35-6.43 2.647-1.58 5.503-2.37 8.57-2.37v0c1.867 0 3.433 0.523 4.7 1.57 1.267 1.053 1.9 2.597 1.9 4.63v0c0 1.167-0.373 2.123-1.12 2.87-0.753 0.753-1.83 1.42-3.23 2-1.4 0.587-3.667 1.413-6.8 2.48v0c-2.833 0.933-5.133 1.717-6.9 2.35v0c-0.133 0.5-0.2 1.017-0.2 1.55v0c0 0.933 0.393 1.65 1.18 2.15 0.78 0.5 1.887 0.75 3.32 0.75v0c0.9 0 1.933-0.183 3.1-0.55 1.167-0.367 1.9-0.833 2.2-1.4v0c1.133-2.067 2.167-3.1 3.1-3.1v0c1.367 0 2.293 0.257 2.78 0.77 0.48 0.52 0.737 1.097 0.77 1.73v0c-0.4 1.067-1.183 2.14-2.35 3.22-1.167 1.087-2.65 1.98-4.45 2.68-1.8 0.7-3.767 1.05-5.9 1.05zM38.3-12.4c3.3-1.067 6.017-2.06 8.15-2.98 2.133-0.913 3.2-1.82 3.2-2.72v0c0-0.4-0.217-0.723-0.65-0.97-0.433-0.253-0.9-0.38-1.4-0.38v0c-1 0-2.14 0.383-3.42 1.15-1.287 0.767-2.48 1.7-3.58 2.8-1.1 1.1-1.867 2.133-2.3 3.1zM67.55-18.1l-3.15 12.6c0 0.767 0.2 1.373 0.6 1.82 0.4 0.453 0.967 0.68 1.7 0.68v0c1 0 1.827-0.293 2.48-0.88 0.647-0.58 1.337-1.403 2.07-2.47v0c0.533-0.767 0.967-1.317 1.3-1.65 0.333-0.333 0.717-0.5 1.15-0.5v0c0.867 0 1.483 0.107 1.85 0.32 0.367 0.22 0.55 0.663 0.55 1.33v0c0 0.3-0.033 0.657-0.1 1.07-0.067 0.42-0.15 0.73-0.25 0.93v0c-0.8 1.7-2.107 3.167-3.92 4.4-1.82 1.233-3.88 1.85-6.18 1.85v0c-2.3 0-4.033-0.56-5.2-1.68-1.167-1.113-1.75-2.703-1.75-4.77v0c0-0.3 0.15-1.083 0.45-2.35 0.3-1.267 0.683-2.783 1.15-4.55v0l1.4-5.7-3.05 0.25c-0.4 0-0.7-0.15-0.9-0.45-0.2-0.3-0.3-0.667-0.3-1.1v0c0-0.833 0.3-1.667 0.9-2.5v0c0.067-0.1 0.4-0.2 1-0.3 0.6-0.1 1.333-0.2 2.2-0.3v0l1.35-0.15 1.7-7.3c0.333-0.867 0.843-1.543 1.53-2.03 0.68-0.48 1.32-0.72 1.92-0.72v0c0.667 0 1.233 0.2 1.7 0.6 0.467 0.4 0.717 0.867 0.75 1.4v0l-1.8 7.5c1.3-0.167 2.51-0.31 3.63-0.43 1.113-0.113 1.987-0.17 2.62-0.17v0c1.267 0 1.9 0.733 1.9 2.2v0c0 0.567-0.24 1.073-0.72 1.52-0.487 0.453-1.013 0.73-1.58 0.83v0zM84.7-1.9c-0.033 0.2-0.107 0.59-0.22 1.17-0.12 0.587-0.403 0.997-0.85 1.23-0.453 0.233-1.163 0.35-2.13 0.35v0c-1.1 0-1.9-0.117-2.4-0.35-0.5-0.233-0.75-0.733-0.75-1.5v0l2.4-9.55c1.333-5.5 2.217-9 2.65-10.5v0l-1.25-1.5c-0.1-0.1-0.15-0.217-0.15-0.35v0c0-0.333 0.367-0.61 1.1-0.83 0.733-0.213 1.75-0.32 3.05-0.32v0c1.167 0 1.95 0.323 2.35 0.97 0.4 0.653 0.65 1.497 0.75 2.53v0l-0.35 1.3c1.067-1.3 2.31-2.377 3.73-3.23 1.413-0.847 2.67-1.27 3.77-1.27v0c1.433 0 2.55 0.25 3.35 0.75 0.8 0.5 1.2 1.15 1.2 1.95v0c0 0.7-0.24 1.423-0.72 2.17-0.487 0.753-1.097 1.387-1.83 1.9-0.733 0.52-1.45 0.813-2.15 0.88v0c-0.667 0-1.117-0.083-1.35-0.25-0.233-0.167-0.35-0.417-0.35-0.75v0l0.3-1.65c-2.667 0.733-5.083 2.5-7.25 5.3v0zM108.5 1.05c-3.267 0-5.65-0.65-7.15-1.95-1.5-1.3-2.25-3.033-2.25-5.2v0c0-3.167 0.793-6.1 2.38-8.8 1.58-2.7 3.697-4.843 6.35-6.43 2.647-1.58 5.503-2.37 8.57-2.37v0c1.867 0 3.433 0.523 4.7 1.57 1.267 1.053 1.9 2.597 1.9 4.63v0c0 1.167-0.373 2.123-1.12 2.87-0.753 0.753-1.83 1.42-3.23 2-1.4 0.587-3.667 1.413-6.8 2.48v0c-2.833 0.933-5.133 1.717-6.9 2.35v0c-0.133 0.5-0.2 1.017-0.2 1.55v0c0 0.933 0.393 1.65 1.18 2.15 0.78 0.5 1.887 0.75 3.32 0.75v0c0.9 0 1.933-0.183 3.1-0.55 1.167-0.367 1.9-0.833 2.2-1.4v0c1.133-2.067 2.167-3.1 3.1-3.1v0c1.367 0 2.293 0.257 2.78 0.77 0.48 0.52 0.737 1.097 0.77 1.73v0c-0.4 1.067-1.183 2.14-2.35 3.22-1.167 1.087-2.65 1.98-4.45 2.68-1.8 0.7-3.767 1.05-5.9 1.05zM106.35-12.4c3.3-1.067 6.017-2.06 8.15-2.98 2.133-0.913 3.2-1.82 3.2-2.72v0c0-0.4-0.217-0.723-0.65-0.97-0.433-0.253-0.9-0.38-1.4-0.38v0c-1 0-2.14 0.383-3.42 1.15-1.287 0.767-2.48 1.7-3.58 2.8-1.1 1.1-1.867 2.133-2.3 3.1zM144.2-2.6c0.067 0.867 0.183 1.65 0.35 2.35v0c-0.067 0.2-0.357 0.4-0.87 0.6-0.52 0.2-0.963 0.3-1.33 0.3v0c-1.2 0-2.057-0.173-2.57-0.52-0.52-0.353-0.78-0.88-0.78-1.58v0c0-0.667 0.067-1.333 0.2-2v0c-0.733 1-1.807 1.823-3.22 2.47-1.42 0.653-2.563 0.98-3.43 0.98v0c-2.233 0-4.09-0.65-5.57-1.95-1.487-1.3-2.23-3.383-2.23-6.25v0c0-2.7 0.643-5.243 1.93-7.63 1.28-2.38 3.053-4.297 5.32-5.75 2.267-1.447 4.783-2.17 7.55-2.17v0c0.533 0 1.233 0.14 2.1 0.42 0.867 0.287 1.743 0.77 2.63 1.45 0.88 0.687 1.62 1.563 2.22 2.63v0c0.267 0 0.583 0.133 0.95 0.4 0.367 0.267 0.55 0.533 0.55 0.8v0c0 0.3-0.05 0.6-0.15 0.9v0zM141.95-16.6c-0.2-0.733-0.59-1.35-1.17-1.85-0.587-0.5-1.113-0.75-1.58-0.75v0c-1.533 0-2.973 0.543-4.32 1.63-1.353 1.08-2.447 2.42-3.28 4.02-0.833 1.6-1.25 3.117-1.25 4.55v0c0 1.4 0.167 2.55 0.5 3.45 0.333 0.9 0.983 1.35 1.95 1.35v0c0.833 0 1.793-0.25 2.88-0.75 1.08-0.5 2.047-1.177 2.9-2.03 0.847-0.847 1.403-1.737 1.67-2.67v0zM160.7-18.1l-3.15 12.6c0 0.767 0.2 1.373 0.6 1.82 0.4 0.453 0.967 0.68 1.7 0.68v0c1 0 1.827-0.293 2.48-0.88 0.647-0.58 1.337-1.403 2.07-2.47v0c0.533-0.767 0.967-1.317 1.3-1.65 0.333-0.333 0.717-0.5 1.15-0.5v0c0.867 0 1.483 0.107 1.85 0.32 0.367 0.22 0.55 0.663 0.55 1.33v0c0 0.3-0.033 0.657-0.1 1.07-0.067 0.42-0.15 0.73-0.25 0.93v0c-0.8 1.7-2.107 3.167-3.92 4.4-1.82 1.233-3.88 1.85-6.18 1.85v0c-2.3 0-4.033-0.56-5.2-1.68-1.167-1.113-1.75-2.703-1.75-4.77v0c0-0.3 0.15-1.083 0.45-2.35 0.3-1.267 0.683-2.783 1.15-4.55v0l1.4-5.7-3.05 0.25c-0.4 0-0.7-0.15-0.9-0.45-0.2-0.3-0.3-0.667-0.3-1.1v0c0-0.833 0.3-1.667 0.9-2.5v0c0.067-0.1 0.4-0.2 1-0.3 0.6-0.1 1.333-0.2 2.2-0.3v0l1.35-0.15 1.7-7.3c0.333-0.867 0.843-1.543 1.53-2.03 0.68-0.48 1.32-0.72 1.92-0.72v0c0.667 0 1.233 0.2 1.7 0.6 0.467 0.4 0.717 0.867 0.75 1.4v0l-1.8 7.5c1.3-0.167 2.51-0.31 3.63-0.43 1.113-0.113 1.987-0.17 2.62-0.17v0c1.267 0 1.9 0.733 1.9 2.2v0c0 0.567-0.24 1.073-0.72 1.52-0.487 0.453-1.013 0.73-1.58 0.83v0z" fill="#ff4057" fill-rule="nonzero" stroke="none" stroke-width="1" stroke-linecap="butt" stroke-linejoin="miter" stroke-miterlimit="10" stroke-dasharray="" stroke-dashoffset="0" font-family="none" font-weight="none" font-size="none" text-anchor="none" style="mix-blend-mode: normal" data-fill-palette-color="primary" opacity="1"/>
                                      </g>
                                    </svg>
                                  </g>
                                </svg>
                              </g>
                            </svg>
                          </g>
                        </svg>
                      </g>
                      <g>
                        <svg viewBox="0 0 179.1468072534378 172.37589502826586" height="172.37589502826586" width="179.1468072534378">
                          <g>
                            <svg xmlns="http://www.w3.org/2000/svg" version="1.1" x="0" y="0" viewBox="1 2.2249999999999996 61.91510153071851 59.575" style="enable-background:new 0 0 64 64;" height="172.37589502826586" width="179.1468072534378" class="icon-icon-0" data-fill-palette-color="accent" id="icon-0">
                              <g fill="#ff4057" data-fill-palette-color="accent">
                                <path d="M49.3 49v-1.6H48V44l-2.1-2.4c0 0 0 0 0 0l-2 2.4v3.3h-2.7V44L39 41.6c0 0 0 0 0 0l-2 2.4v3.3h-2.7V44l-2.1-2.4c0 0 0 0 0 0l-2 2.4v3.3h-2.7V44l-2.1-2.4c0 0 0 0 0 0l-2 2.4v3.3h-2.7V44l-2.1-2.4c0 0 0 0 0 0l-2 2.4v3.3h-2.7V44l-2.1-2.4c0 0 0 0 0 0l-2 2.4v3.3H6.9V44l-2.1-2.4c0 0 0 0 0 0l-2 2.4v3.3H1V49h1.7v5.5H1v1.6h1.7v5.7h4.2v-5.7h2.7v5.7h4.2v-5.7h2.7v5.7h4.2v-5.7h2.7v5.7h4.2v-5.7h2.7v5.7h4.2v-5.7h2.7v5.7h4.2v-5.7h2.7v5.7H48v-5.7h1.3v-1.6H48V49H49.3zM4.8 55.8c-0.3 0-0.6-0.3-0.6-0.6 0-0.3 0.3-0.6 0.6-0.6 0.3 0 0.6 0.3 0.6 0.6C5.5 55.5 5.2 55.8 4.8 55.8zM4.8 48.7c-0.3 0-0.6-0.3-0.6-0.6 0-0.3 0.3-0.6 0.6-0.6 0.3 0 0.6 0.3 0.6 0.6C5.5 48.4 5.2 48.7 4.8 48.7zM9.5 54.4H6.9V49h2.7V54.4zM11.7 55.8c-0.3 0-0.6-0.3-0.6-0.6 0-0.3 0.3-0.6 0.6-0.6 0.3 0 0.6 0.3 0.6 0.6C12.3 55.5 12 55.8 11.7 55.8zM11.7 48.7c-0.3 0-0.6-0.3-0.6-0.6 0-0.3 0.3-0.6 0.6-0.6 0.3 0 0.6 0.3 0.6 0.6C12.3 48.4 12 48.7 11.7 48.7zM16.4 54.4h-2.7V49h2.7V54.4zM18.5 55.8c-0.3 0-0.6-0.3-0.6-0.6 0-0.3 0.3-0.6 0.6-0.6 0.3 0 0.6 0.3 0.6 0.6C19.1 55.5 18.8 55.8 18.5 55.8zM18.5 48.7c-0.3 0-0.6-0.3-0.6-0.6 0-0.3 0.3-0.6 0.6-0.6 0.3 0 0.6 0.3 0.6 0.6C19.1 48.4 18.8 48.7 18.5 48.7zM23.2 54.4h-2.7V49h2.7V54.4zM25.3 55.8c-0.3 0-0.6-0.3-0.6-0.6 0-0.3 0.3-0.6 0.6-0.6s0.6 0.3 0.6 0.6C25.9 55.5 25.6 55.8 25.3 55.8zM25.3 48.7c-0.3 0-0.6-0.3-0.6-0.6 0-0.3 0.3-0.6 0.6-0.6s0.6 0.3 0.6 0.6C25.9 48.4 25.6 48.7 25.3 48.7zM30.1 54.4h-2.7V49h2.7V54.4zM32.1 55.8c-0.3 0-0.6-0.3-0.6-0.6 0-0.3 0.3-0.6 0.6-0.6s0.6 0.3 0.6 0.6C32.7 55.5 32.4 55.8 32.1 55.8zM32.1 48.7c-0.3 0-0.6-0.3-0.6-0.6 0-0.3 0.3-0.6 0.6-0.6s0.6 0.3 0.6 0.6C32.7 48.4 32.4 48.7 32.1 48.7zM36.9 54.4h-2.7V49h2.7V54.4zM38.9 55.8c-0.3 0-0.6-0.3-0.6-0.6 0-0.3 0.3-0.6 0.6-0.6s0.6 0.3 0.6 0.6C39.5 55.5 39.3 55.8 38.9 55.8zM38.9 48.7c-0.3 0-0.6-0.3-0.6-0.6 0-0.3 0.3-0.6 0.6-0.6s0.6 0.3 0.6 0.6C39.5 48.4 39.3 48.7 38.9 48.7zM43.8 54.4h-2.7V49h2.7V54.4zM45.7 55.8c-0.3 0-0.6-0.3-0.6-0.6 0-0.3 0.3-0.6 0.6-0.6s0.6 0.3 0.6 0.6C46.3 55.5 46.1 55.8 45.7 55.8zM45.7 48.7c-0.3 0-0.6-0.3-0.6-0.6 0-0.3 0.3-0.6 0.6-0.6s0.6 0.3 0.6 0.6C46.3 48.4 46.1 48.7 45.7 48.7z" fill="#ff4057" data-fill-palette-color="accent"/>
                                <path d="M61.8 16.7L47.4 3.8c-2.4-2.1-6.3-2.1-8.7 0L24.2 16.7c-0.8 0.7-1.2 1.6-1.2 2.6 0 1 0.4 1.9 1.2 2.6 0.7 0.7 1.7 1 2.7 1 0.7 0 1.4-0.2 1.9-0.5 0 0 0 0.1 0 0.1v15h-1c-0.5 0-0.9 0.6-0.9 1.3 0 0.7 0.4 1.3 0.9 1.3h30.2c0.5 0 0.9-0.6 0.9-1.3 0-0.7-0.4-1.3-0.9-1.3h-1v-15c0 0 0-0.1 0-0.1 0.6 0.3 1.3 0.5 2 0.5 1 0 2-0.3 2.7-1 0.8-0.7 1.2-1.6 1.2-2.6C63 18.4 62.6 17.4 61.8 16.7zM60.5 19.8c-0.1 0.1-0.2 0.3-0.3 0.4-0.6 0.6-1.7 0.6-2.3 0L44.7 8.4c-0.9-0.8-2.4-0.8-3.3 0L28.1 20.2c-0.3 0.3-0.7 0.4-1.2 0.4s-0.9-0.1-1.2-0.4c-0.3-0.2-0.4-0.5-0.4-0.9 0-0.3 0.1-0.6 0.4-0.9L40.2 5.6c1.5-1.3 4-1.3 5.5 0l14.4 12.9c0.3 0.2 0.4 0.5 0.4 0.9C60.6 19.5 60.6 19.7 60.5 19.8zM38.4 37.7h-6.6v-8.6c0-1.6 1.5-2.9 3.3-2.9 0.9 0 1.7 0.3 2.3 0.9 0.6 0.5 1 1.3 1 2.1V37.7zM50.2 30.9c0 0.2-0.1 0.3-0.3 0.3h-2.6c-0.2 0-0.3-0.1-0.3-0.3v-2.3c0-0.2 0.1-0.3 0.3-0.3h2.6c0.2 0 0.3 0.1 0.3 0.3V30.9zM50.2 27.7c0 0.2-0.1 0.3-0.3 0.3h-2.6c-0.2 0-0.3-0.1-0.3-0.3v-2.3c0-0.2 0.1-0.3 0.3-0.3h2.6c0.2 0 0.3 0.1 0.3 0.3V27.7zM53.9 30.9c0 0.2-0.1 0.3-0.3 0.3H51c-0.2 0-0.3-0.1-0.3-0.3v-2.3c0-0.2 0.1-0.3 0.3-0.3h2.6c0.2 0 0.3 0.1 0.3 0.3V30.9zM53.9 27.7c0 0.2-0.1 0.3-0.3 0.3H51c-0.2 0-0.3-0.1-0.3-0.3v-2.3c0-0.2 0.1-0.3 0.3-0.3h2.6c0.2 0 0.3 0.1 0.3 0.3V27.7z" fill="#ff4057" data-fill-palette-color="accent"/>
                              </g>
                            </svg>
                          </g>
                        </svg>
                      </g>
                    </svg>
                  </g>
                </svg>
              </g>
            </svg>
          </g>
        </svg>
        <rect width="375.07953" height="243.092004" fill="none" stroke="none" visibility="hidden"/>
      </g>
    </svg>
  </g>
</svg>