<svg xmlns="http://www.w3.org/2000/svg" version="1.1" xmlns:xlink="http://www.w3.org/1999/xlink" xmlns:svgjs="http://svgjs.dev/svgjs" width="2000" height="984" viewBox="0 0 2000 984"><g transform="matrix(1,0,0,1,-1.2121212121212466,-0.8943008843963298)"><svg viewBox="0 0 396 195" data-background-color="#ffffff" preserveAspectRatio="xMidYMid meet" height="984" width="2000" xmlns="http://www.w3.org/2000/svg" xmlns:xlink="http://www.w3.org/1999/xlink"><g id="tight-bounds" transform="matrix(1,0,0,1,0.2400000000000091,0.17722426062732666)"><svg viewBox="0 0 395.52 194.64555147874535" height="194.64555147874535" width="395.52"><g><svg viewBox="0 0 408.4322472105461 201" height="194.64555147874535" width="395.52"><g><rect width="5.672403896045198" height="201" x="194.31363163841806" y="0" fill="#ffb215" opacity="1" stroke-width="0" stroke="transparent" fill-opacity="1" class="rect-in-0" data-fill-palette-color="primary" rx="1%" id="in-0" data-palette-color="#ffb215"></rect></g><g transform="matrix(1,0,0,1,214.83526039322032,0.4999999999999858)"><svg viewBox="0 0 193.59698681732579 200.00000000000003" height="200.00000000000003" width="193.59698681732579"><g><svg viewBox="0 0 193.59698681732579 200.00000000000003" height="200.00000000000003" width="193.59698681732579"><g><svg viewBox="0 0 193.59698681732579 200.00000000000003" height="200.00000000000003" width="193.59698681732579"><g transform="matrix(1,0,0,1,0,0)"><svg width="193.59698681732579" viewBox="0.44999999999999796 -38.74999999999999 154.20000000000002 146.35" height="200.00000000000003" data-palette-color="#ffb215"><svg></svg><svg></svg><svg></svg><g class="undefined-text-0" data-fill-palette-color="primary" id="text-0"><path d="M5.75-29.55c0.367-1.467 0.76-2.443 1.18-2.93 0.413-0.48 1.17-0.72 2.27-0.72v0c0.9 0 1.677 0.1 2.33 0.3 0.647 0.2 0.987 0.5 1.02 0.9v0c0.167 0.1 0.25 0.367 0.25 0.8v0c0 0.7-0.183 1.767-0.55 3.2-0.367 1.433-0.9 3.3-1.6 5.6v0c-0.8 2.767-1.45 5.117-1.95 7.05-0.5 1.933-0.817 3.583-0.95 4.95v0l-0.05 0.7c0 1.333 0.333 2.423 1 3.27 0.667 0.853 1.483 1.47 2.45 1.85 0.967 0.387 1.917 0.58 2.85 0.58v0c2.133 0 3.817-0.493 5.05-1.48 1.233-0.98 2.177-2.33 2.83-4.05 0.647-1.713 1.253-4.053 1.82-7.02v0c0.3-1.5 0.767-3.667 1.4-6.5 0.633-2.833 1.05-4.55 1.25-5.15v0c0.3-0.867 0.483-1.533 0.55-2v0c0.2-0.767 0.41-1.35 0.63-1.75 0.213-0.4 0.553-0.75 1.02-1.05v0c0.133-0.033 0.317-0.077 0.55-0.13 0.233-0.047 0.417-0.07 0.55-0.07v0c1.133 0 2.077 0.1 2.83 0.3 0.747 0.2 1.187 0.45 1.32 0.75v0c-0.5 1.967-1.19 4.89-2.07 8.77-0.887 3.887-1.53 6.963-1.93 9.23v0c-1.833 10.133-7.333 15.2-16.5 15.2v0c-2.333 0-4.417-0.467-6.25-1.4-1.833-0.933-3.273-2.227-4.32-3.88-1.053-1.647-1.58-3.52-1.58-5.62v0c0-1.067 0.15-2.167 0.45-3.3v0zM56.2-37.05c0.133-0.5 0.527-0.907 1.18-1.22 0.647-0.32 1.337-0.48 2.07-0.48v0c0.6 0 1.25 0.133 1.95 0.4 0.7 0.267 1.05 0.65 1.05 1.15v0l-3.15 12.3c-2.767 10.767-4.383 17.333-4.85 19.7v0c-0.2 1-0.3 1.767-0.3 2.3v0c0 0.9 0.1 1.783 0.3 2.65v0c-0.067 0.2-0.323 0.4-0.77 0.6-0.453 0.2-0.863 0.3-1.23 0.3v0c-0.667 0-1.4-0.083-2.2-0.25-0.8-0.167-1.3-0.35-1.5-0.55v0c-0.3-0.267-0.45-0.8-0.45-1.6v0c0-0.6 0.067-1.167 0.2-1.7v0c-0.7 1-1.757 1.823-3.17 2.47-1.42 0.653-2.563 0.98-3.43 0.98v0c-5.1 0-7.65-2.75-7.65-8.25v0c0-2.4 0.543-4.8 1.63-7.2 1.08-2.4 2.63-4.383 4.65-5.95 2.013-1.567 4.353-2.35 7.02-2.35v0c0.733 0 1.55 0.29 2.45 0.87 0.9 0.587 1.633 1.247 2.2 1.98v0c0.733-3.1 1.383-5.683 1.95-7.75v0c0.267-1.1 0.577-2.36 0.93-3.78 0.347-1.413 0.72-2.953 1.12-4.62zM51.1-16.25c-0.2-0.733-0.677-1.41-1.43-2.03-0.747-0.613-1.353-0.92-1.82-0.92v0c-1.533 0-2.967 0.5-4.3 1.5-1.333 1-2.39 2.3-3.17 3.9-0.787 1.6-1.18 3.25-1.18 4.95v0c0 1.267 0.233 2.4 0.7 3.4 0.467 1 1.183 1.5 2.15 1.5v0c0.833 0 1.81-0.277 2.93-0.83 1.113-0.547 2.103-1.263 2.97-2.15 0.867-0.88 1.4-1.787 1.6-2.72v0zM65.9 11.35c-1.533 0-2.973-0.333-4.32-1-1.353-0.667-2.487-1.523-3.4-2.57-0.92-1.053-1.58-2.113-1.98-3.18v0c0.033-0.6 0.327-1.19 0.88-1.77 0.547-0.587 1.503-0.88 2.87-0.88v0c0.433 0 0.81 0.167 1.13 0.5 0.313 0.333 0.67 0.867 1.07 1.6v0c0.533 1 1.093 1.777 1.68 2.33 0.58 0.547 1.387 0.82 2.42 0.82v0c1.167 0 2.293-0.457 3.38-1.37 1.08-0.92 2.013-2.163 2.8-3.73 0.78-1.567 1.32-3.3 1.62-5.2v0c-0.733 1-1.573 1.767-2.52 2.3-0.953 0.533-1.847 0.8-2.68 0.8v0c-2.667 0-4.773-0.593-6.32-1.78-1.553-1.18-2.33-3.287-2.33-6.32v0c0-2.733 0.76-5.283 2.28-7.65 1.513-2.367 3.537-4.25 6.07-5.65 2.533-1.4 5.25-2.1 8.15-2.1v0c1.9 0 3.31 0.383 4.23 1.15 0.913 0.767 1.47 1.733 1.67 2.9v0c0.567 0.267 0.867 0.533 0.9 0.8v0c0 0.1-0.067 0.45-0.2 1.05v0c-0.633 2.733-1.967 8.133-4 16.2v0l-0.55 2.2c-0.833 3.233-2.423 5.8-4.77 7.7-2.353 1.9-5.047 2.85-8.08 2.85zM77.2-18.35c-0.267-0.467-0.523-0.767-0.77-0.9-0.253-0.133-0.63-0.2-1.13-0.2v0c-1.567 0-3.083 0.507-4.55 1.52-1.467 1.02-2.65 2.337-3.55 3.95-0.9 1.62-1.35 3.28-1.35 4.98v0c0 1.233 0.227 2.3 0.68 3.2 0.447 0.9 1.17 1.417 2.17 1.55v0c1.333-0.233 2.593-0.833 3.78-1.8 1.18-0.967 1.987-2.217 2.42-3.75v0zM104.8-2.6c0.067 0.867 0.183 1.65 0.35 2.35v0c-0.067 0.2-0.357 0.4-0.87 0.6-0.52 0.2-0.963 0.3-1.33 0.3v0c-1.2 0-2.057-0.173-2.57-0.52-0.52-0.353-0.78-0.88-0.78-1.58v0c0-0.667 0.067-1.333 0.2-2v0c-0.733 1-1.807 1.823-3.22 2.47-1.42 0.653-2.563 0.98-3.43 0.98v0c-2.233 0-4.09-0.65-5.57-1.95-1.487-1.3-2.23-3.383-2.23-6.25v0c0-2.7 0.643-5.243 1.93-7.63 1.28-2.38 3.053-4.297 5.32-5.75 2.267-1.447 4.783-2.17 7.55-2.17v0c0.533 0 1.233 0.14 2.1 0.42 0.867 0.287 1.743 0.77 2.63 1.45 0.88 0.687 1.62 1.563 2.22 2.63v0c0.267 0 0.583 0.133 0.95 0.4 0.367 0.267 0.55 0.533 0.55 0.8v0c0 0.3-0.05 0.6-0.15 0.9v0zM102.55-16.6c-0.2-0.733-0.59-1.35-1.17-1.85-0.587-0.5-1.113-0.75-1.58-0.75v0c-1.533 0-2.973 0.543-4.32 1.63-1.353 1.08-2.447 2.42-3.28 4.02-0.833 1.6-1.25 3.117-1.25 4.55v0c0 1.4 0.167 2.55 0.5 3.45 0.333 0.9 0.983 1.35 1.95 1.35v0c0.833 0 1.793-0.25 2.88-0.75 1.08-0.5 2.047-1.177 2.9-2.03 0.847-0.847 1.403-1.737 1.67-2.67v0zM113.6-22.85c-0.1-0.1-0.15-0.217-0.15-0.35v0c0-0.333 0.367-0.61 1.1-0.83 0.733-0.213 1.75-0.32 3.05-0.32v0c1.167 0 1.95 0.323 2.35 0.97 0.4 0.653 0.65 1.497 0.75 2.53v0c-0.067 0.267-0.133 0.633-0.2 1.1v0l-0.25 1.2c0.967-1.133 2.4-2.243 4.3-3.33 1.9-1.08 3.383-1.62 4.45-1.62v0c1.667 0 2.827 0.29 3.48 0.87 0.647 0.587 1.02 1.697 1.12 3.33v0c1.233-1.167 2.65-2.16 4.25-2.98 1.6-0.813 3-1.22 4.2-1.22v0c1.267 0 2.433 0.257 3.5 0.77 1.067 0.52 1.6 1.347 1.6 2.48v0c0 0.3-0.017 0.533-0.05 0.7v0c-0.1 0.533-0.29 1.277-0.57 2.23-0.287 0.947-0.497 1.637-0.63 2.07v0c-0.833 2.7-1.473 4.973-1.92 6.82-0.453 1.853-0.73 3.663-0.83 5.43v0l0.7 2.45c-0.4 0.767-0.957 1.377-1.67 1.83-0.72 0.447-1.763 0.67-3.13 0.67v0c-0.8 0-1.383-0.267-1.75-0.8-0.367-0.533-0.55-1.2-0.55-2v0c0-0.167 0.017-0.35 0.05-0.55 0.033-0.2 0.05-0.383 0.05-0.55v0c0.067-1.867 0.343-3.76 0.83-5.68 0.48-1.913 1.103-4.07 1.87-6.47v0c0.7-2.1 1.05-3.383 1.05-3.85v0c0-0.2-0.023-0.407-0.07-0.62-0.053-0.22-0.113-0.33-0.18-0.33v0c-0.767 0-2.023 0.367-3.77 1.1-1.753 0.733-2.93 1.467-3.53 2.2v0c-0.633 2.033-1.683 6.267-3.15 12.7v0l-0.3 1.4c-0.167 0.867-0.323 1.467-0.47 1.8-0.153 0.333-0.447 0.583-0.88 0.75-0.433 0.167-1.133 0.25-2.1 0.25v0c-2.3 0-3.45-0.467-3.45-1.4v0c0.267-0.733 1-3.55 2.2-8.45v0c0.733-3.033 1.567-6.383 2.5-10.05v0c-0.2 0.1-0.567 0.25-1.1 0.45v0c-1.6 0.633-2.99 1.283-4.17 1.95-1.187 0.667-2.147 1.45-2.88 2.35v0l-1.3 5.3c-0.2 0.8-0.383 1.54-0.55 2.22-0.167 0.687-0.317 1.263-0.45 1.73v0c-0.167 0.567-0.283 1.333-0.35 2.3v0c-0.067 0.667-0.157 1.15-0.27 1.45-0.12 0.3-0.403 0.54-0.85 0.72-0.453 0.187-1.163 0.28-2.13 0.28v0c-1.1 0-1.933-0.117-2.5-0.35-0.567-0.233-0.85-0.733-0.85-1.5v0c0-0.367 0.427-2.317 1.28-5.85 0.847-3.533 2.003-8.133 3.47-13.8v0z" fill="#ffb215" fill-rule="nonzero" stroke="none" stroke-width="1" stroke-linecap="butt" stroke-linejoin="miter" stroke-miterlimit="10" stroke-dasharray="" stroke-dashoffset="0" font-family="none" font-weight="none" font-size="none" text-anchor="none" style="mix-blend-mode: normal" data-fill-palette-color="primary" opacity="1"></path><path transform="translate(0,53.1)" d="M27.15-34.1c1.2 0.633 1.8 1.433 1.8 2.4v0c0 0.6-0.317 1.157-0.95 1.67-0.633 0.52-1.35 0.897-2.15 1.13v0l-0.6 0.05c-4.3 0.233-8.233 0.55-11.8 0.95v0l-2.8 11.2c2.467-0.4 4.65-0.683 6.55-0.85 1.9-0.167 3.033-0.267 3.4-0.3v0l1.95-0.15c1.3 0.567 1.95 1.333 1.95 2.3v0c0 0.6-0.3 1.183-0.9 1.75-0.6 0.567-1.283 0.967-2.05 1.2v0l-0.75 0.1c-1.5 0.167-2.9 0.3-4.2 0.4v0c-3.4 0.3-5.817 0.567-7.25 0.8v0l-2.4 9.65c-0.167 0.7-0.34 1.207-0.52 1.52-0.187 0.32-0.503 0.557-0.95 0.71-0.453 0.147-1.13 0.22-2.03 0.22v0c-1.033 0-1.79-0.173-2.27-0.52-0.487-0.353-0.73-0.947-0.73-1.78v0c0-0.367 0.05-0.717 0.15-1.05v0l6.85-27.05c0.367-1.467 0.76-2.443 1.18-2.93 0.413-0.48 1.17-0.72 2.27-0.72v0c1.167 0 2.117 0.15 2.85 0.45v0c4.9-0.633 9.367-1.017 13.4-1.15zM47.35-2.6c0.067 0.867 0.183 1.65 0.35 2.35v0c-0.067 0.2-0.357 0.4-0.87 0.6-0.52 0.2-0.963 0.3-1.33 0.3v0c-1.2 0-2.06-0.173-2.58-0.52-0.513-0.353-0.77-0.88-0.77-1.58v0c0-0.667 0.067-1.333 0.2-2v0c-0.733 1-1.807 1.823-3.22 2.47-1.42 0.653-2.563 0.98-3.43 0.98v0c-2.233 0-4.09-0.65-5.57-1.95-1.487-1.3-2.23-3.383-2.23-6.25v0c0-2.7 0.64-5.243 1.92-7.63 1.287-2.38 3.063-4.297 5.33-5.75 2.267-1.447 4.783-2.17 7.55-2.17v0c0.533 0 1.233 0.14 2.1 0.42 0.867 0.287 1.74 0.77 2.62 1.45 0.887 0.687 1.63 1.563 2.23 2.63v0c0.267 0 0.583 0.133 0.95 0.4 0.367 0.267 0.55 0.533 0.55 0.8v0c0 0.3-0.05 0.6-0.15 0.9v0zM45.1-16.6c-0.2-0.733-0.593-1.35-1.18-1.85-0.58-0.5-1.103-0.75-1.57-0.75v0c-1.533 0-2.977 0.543-4.33 1.63-1.347 1.08-2.437 2.42-3.27 4.02-0.833 1.6-1.25 3.117-1.25 4.55v0c0 1.4 0.167 2.55 0.5 3.45 0.333 0.9 0.983 1.35 1.95 1.35v0c0.833 0 1.793-0.25 2.88-0.75 1.08-0.5 2.047-1.177 2.9-2.03 0.847-0.847 1.403-1.737 1.67-2.67v0zM59.15-1.9c-0.033 0.2-0.107 0.59-0.22 1.17-0.12 0.587-0.403 0.997-0.85 1.23-0.453 0.233-1.163 0.35-2.13 0.35v0c-1.1 0-1.9-0.117-2.4-0.35-0.5-0.233-0.75-0.733-0.75-1.5v0l2.4-9.55c1.333-5.5 2.217-9 2.65-10.5v0l-1.25-1.5c-0.1-0.1-0.15-0.217-0.15-0.35v0c0-0.333 0.367-0.61 1.1-0.83 0.733-0.213 1.75-0.32 3.05-0.32v0c1.167 0 1.95 0.323 2.35 0.97 0.4 0.653 0.65 1.497 0.75 2.53v0l-0.35 1.3c1.067-1.3 2.31-2.377 3.73-3.23 1.413-0.847 2.67-1.27 3.77-1.27v0c1.433 0 2.55 0.25 3.35 0.75 0.8 0.5 1.2 1.15 1.2 1.95v0c0 0.7-0.24 1.423-0.72 2.17-0.487 0.753-1.097 1.387-1.83 1.9-0.733 0.52-1.45 0.813-2.15 0.88v0c-0.667 0-1.117-0.083-1.35-0.25-0.233-0.167-0.35-0.417-0.35-0.75v0l0.3-1.65c-2.667 0.733-5.083 2.5-7.25 5.3v0zM76.65-22.85c-0.1-0.1-0.15-0.217-0.15-0.35v0c0-0.333 0.367-0.61 1.1-0.83 0.733-0.213 1.75-0.32 3.05-0.32v0c1.167 0 1.95 0.323 2.35 0.97 0.4 0.653 0.65 1.497 0.75 2.53v0c-0.067 0.267-0.133 0.633-0.2 1.1v0l-0.25 1.2c0.967-1.133 2.4-2.243 4.3-3.33 1.9-1.08 3.383-1.62 4.45-1.62v0c1.667 0 2.823 0.29 3.47 0.87 0.653 0.587 1.03 1.697 1.13 3.33v0c1.233-1.167 2.65-2.16 4.25-2.98 1.6-0.813 3-1.22 4.2-1.22v0c1.267 0 2.433 0.257 3.5 0.77 1.067 0.52 1.6 1.347 1.6 2.48v0c0 0.3-0.017 0.533-0.05 0.7v0c-0.1 0.533-0.293 1.277-0.58 2.23-0.28 0.947-0.487 1.637-0.62 2.07v0c-0.833 2.7-1.473 4.973-1.92 6.82-0.453 1.853-0.73 3.663-0.83 5.43v0l0.7 2.45c-0.4 0.767-0.96 1.377-1.68 1.83-0.713 0.447-1.753 0.67-3.12 0.67v0c-0.8 0-1.383-0.267-1.75-0.8-0.367-0.533-0.55-1.2-0.55-2v0c0-0.167 0.017-0.35 0.05-0.55 0.033-0.2 0.05-0.383 0.05-0.55v0c0.067-1.867 0.34-3.76 0.82-5.68 0.487-1.913 1.113-4.07 1.88-6.47v0c0.7-2.1 1.05-3.383 1.05-3.85v0c0-0.2-0.027-0.407-0.08-0.62-0.047-0.22-0.103-0.33-0.17-0.33v0c-0.767 0-2.023 0.367-3.77 1.1-1.753 0.733-2.93 1.467-3.53 2.2v0c-0.633 2.033-1.683 6.267-3.15 12.7v0l-0.3 1.4c-0.167 0.867-0.327 1.467-0.48 1.8-0.147 0.333-0.437 0.583-0.87 0.75-0.433 0.167-1.133 0.25-2.1 0.25v0c-2.3 0-3.45-0.467-3.45-1.4v0c0.267-0.733 1-3.55 2.2-8.45v0c0.733-3.033 1.567-6.383 2.5-10.05v0c-0.2 0.1-0.567 0.25-1.1 0.45v0c-1.6 0.633-2.993 1.283-4.18 1.95-1.18 0.667-2.137 1.45-2.87 2.35v0l-1.3 5.3c-0.2 0.8-0.383 1.54-0.55 2.22-0.167 0.687-0.317 1.263-0.45 1.73v0c-0.167 0.567-0.283 1.333-0.35 2.3v0c-0.067 0.667-0.157 1.15-0.27 1.45-0.12 0.3-0.407 0.54-0.86 0.72-0.447 0.187-1.153 0.28-2.12 0.28v0c-1.1 0-1.933-0.117-2.5-0.35-0.567-0.233-0.85-0.733-0.85-1.5v0c0-0.367 0.423-2.317 1.27-5.85 0.853-3.533 2.013-8.133 3.48-13.8v0zM148.2-33.9c1.767 0 3.117 0.4 4.05 1.2 0.933 0.8 1.4 1.95 1.4 3.45v0c0 1.633-0.733 3.35-2.2 5.15-1.467 1.8-3.433 3.483-5.9 5.05v0c0.4 1.633 1.167 3.883 2.3 6.75v0l0.7-1.5 0.45-0.95c0.433-1.1 0.84-1.867 1.22-2.3 0.387-0.433 0.997-0.65 1.83-0.65v0c1.733 0 2.6 0.833 2.6 2.5v0c0 2.233-1.367 5.133-4.1 8.7v0c1.467 3.2 2.2 5.233 2.2 6.1v0c0 0.733-0.273 1.31-0.82 1.73-0.553 0.413-1.247 0.62-2.08 0.62v0c-0.767 0-1.333-0.107-1.7-0.32-0.367-0.22-0.65-0.58-0.85-1.08v0l-1.3-2.95c-3.333 2.2-6.783 3.3-10.35 3.3v0c-1.733 0-3.343-0.31-4.83-0.93-1.48-0.613-2.653-1.497-3.52-2.65-0.867-1.147-1.3-2.47-1.3-3.97v0c0-1.833 0.433-3.517 1.3-5.05 0.867-1.533 2.257-3.06 4.17-4.58 1.92-1.513 4.513-3.137 7.78-4.87v0c-0.167-0.833-0.25-1.6-0.25-2.3v0c0-1.767 0.4-3.46 1.2-5.08 0.8-1.613 1.9-2.913 3.3-3.9 1.4-0.98 2.967-1.47 4.7-1.47zM147.5-29.6c-0.667 0.133-1.267 0.733-1.8 1.8-0.533 1.067-0.8 2.15-0.8 3.25v0 0.45c0.7-0.333 1.317-0.993 1.85-1.98 0.533-0.98 0.8-1.837 0.8-2.57v0c0-0.533-0.017-0.85-0.05-0.95zM136.5-4.15c2.567 0 5.017-0.967 7.35-2.9v0c-1-2.233-2-5.067-3-8.5v0l-0.2-0.7c-2.3 1.3-4.027 2.39-5.18 3.27-1.147 0.887-1.953 1.753-2.42 2.6-0.467 0.853-0.7 1.847-0.7 2.98v0c0 0.933 0.393 1.707 1.18 2.32 0.78 0.62 1.77 0.93 2.97 0.93z" fill="#ffb215" fill-rule="nonzero" stroke="none" stroke-width="1" stroke-linecap="butt" stroke-linejoin="miter" stroke-miterlimit="10" stroke-dasharray="" stroke-dashoffset="0" font-family="none" font-weight="none" font-size="none" text-anchor="none" style="mix-blend-mode: normal" data-fill-palette-color="primary" opacity="1"></path><path transform="translate(0,106.2)" d="M27-3.95c0.4 0.067 0.867 0.433 1.4 1.1 0.533 0.667 0.8 1.283 0.8 1.85v0c0 0.367-0.283 0.65-0.85 0.85v0c-0.2 0.067-0.523 0.193-0.97 0.38-0.453 0.18-0.863 0.303-1.23 0.37-0.367 0.067-0.783 0.1-1.25 0.1v0c-0.7 0-1.233-0.083-1.6-0.25v0c-0.933-0.4-2.15-1.333-3.65-2.8-1.5-1.467-2.95-3.143-4.35-5.03-1.4-1.88-2.433-3.637-3.1-5.27v0h-0.3c-0.933 0-1.617-0.017-2.05-0.05v0c-1 3.7-1.833 6.933-2.5 9.7v0c-0.267 1.167-0.673 2.067-1.22 2.7-0.553 0.633-1.447 0.95-2.68 0.95v0c-1.033 0-1.79-0.173-2.27-0.52-0.487-0.353-0.73-0.947-0.73-1.78v0c0-0.367 0.05-0.717 0.15-1.05v0l6.05-23.35c-1.733 0.5-3.05 1.183-3.95 2.05v0c-0.367-0.4-0.657-0.927-0.87-1.58-0.22-0.647-0.33-1.287-0.33-1.92v0c0-0.467 0.143-0.843 0.43-1.13 0.28-0.28 0.67-0.537 1.17-0.77v0c0.167-0.1 0.777-0.4 1.83-0.9 1.047-0.5 2.053-0.883 3.02-1.15v0c0.3-0.667 0.76-1.217 1.38-1.65 0.613-0.433 1.403-0.65 2.37-0.65v0c0.567 0 1.033 0.107 1.4 0.32 0.367 0.22 0.617 0.497 0.75 0.83v0c1.233-0.4 2.717-0.6 4.45-0.6v0c2.133 0 3.993 0.423 5.58 1.27 1.58 0.853 2.787 1.947 3.62 3.28 0.833 1.333 1.25 2.683 1.25 4.05v0c0 3.033-0.973 5.46-2.92 7.28-1.953 1.813-4.463 3.103-7.53 3.87v0c0.7 1.2 1.633 2.55 2.8 4.05 1.167 1.5 2.277 2.773 3.33 3.82 1.047 1.053 1.737 1.58 2.07 1.58v0zM13.3-27.4c-0.967 3.867-1.767 7.217-2.4 10.05v0c0.4 0.033 0.967 0.05 1.7 0.05v0c1.6 0 3.2-0.243 4.8-0.73 1.6-0.48 2.943-1.203 4.03-2.17 1.08-0.967 1.62-2.167 1.62-3.6v0c0-1.3-0.533-2.343-1.6-3.13-1.067-0.78-2.5-1.17-4.3-1.17v0c-1 0-2.283 0.233-3.85 0.7zM40.45 1.05c-3.267 0-5.65-0.65-7.15-1.95-1.5-1.3-2.25-3.033-2.25-5.2v0c0-3.167 0.793-6.1 2.38-8.8 1.58-2.7 3.697-4.843 6.35-6.43 2.647-1.58 5.503-2.37 8.57-2.37v0c1.867 0 3.433 0.523 4.7 1.57 1.267 1.053 1.9 2.597 1.9 4.63v0c0 1.167-0.373 2.123-1.12 2.87-0.753 0.753-1.83 1.42-3.23 2-1.4 0.587-3.667 1.413-6.8 2.48v0c-2.833 0.933-5.133 1.717-6.9 2.35v0c-0.133 0.5-0.2 1.017-0.2 1.55v0c0 0.933 0.393 1.65 1.18 2.15 0.78 0.5 1.887 0.75 3.32 0.75v0c0.9 0 1.933-0.183 3.1-0.55 1.167-0.367 1.9-0.833 2.2-1.4v0c1.133-2.067 2.167-3.1 3.1-3.1v0c1.367 0 2.293 0.257 2.78 0.77 0.48 0.52 0.737 1.097 0.77 1.73v0c-0.4 1.067-1.183 2.14-2.35 3.22-1.167 1.087-2.65 1.98-4.45 2.68-1.8 0.7-3.767 1.05-5.9 1.05zM38.3-12.4c3.3-1.067 6.017-2.06 8.15-2.98 2.133-0.913 3.2-1.82 3.2-2.72v0c0-0.4-0.217-0.723-0.65-0.97-0.433-0.253-0.9-0.38-1.4-0.38v0c-1 0-2.14 0.383-3.42 1.15-1.287 0.767-2.48 1.7-3.58 2.8-1.1 1.1-1.867 2.133-2.3 3.1zM73.55-19.35c-0.4-0.2-0.9-0.3-1.5-0.3v0c-1.5 0-3 0.3-4.5 0.9-1.5 0.6-2.25 1.367-2.25 2.3v0c0 0.667 0.3 1.2 0.9 1.6 0.6 0.4 1.55 0.85 2.85 1.35v0c1.4 0.567 2.533 1.1 3.4 1.6 0.867 0.5 1.627 1.223 2.28 2.17 0.647 0.953 0.97 2.163 0.97 3.63v0c0 2.4-0.99 4.24-2.97 5.52-1.987 1.287-4.647 1.93-7.98 1.93v0c-1.633 0-3.15-0.25-4.55-0.75-1.4-0.5-2.507-1.143-3.32-1.93-0.82-0.78-1.263-1.553-1.33-2.32v0c0-0.8 0.35-1.46 1.05-1.98 0.7-0.513 1.683-0.853 2.95-1.02v0c0.033 0.667 0.383 1.29 1.05 1.87 0.667 0.587 1.46 1.053 2.38 1.4 0.913 0.353 1.703 0.53 2.37 0.53v0c1.133 0 2.167-0.31 3.1-0.93 0.933-0.613 1.4-1.337 1.4-2.17v0c0-1.533-1.483-2.75-4.45-3.65v0c-1.9-0.567-3.357-1.467-4.37-2.7-1.02-1.233-1.53-2.533-1.53-3.9v0c0-2.7 1.227-4.643 3.68-5.83 2.447-1.18 5.57-1.77 9.37-1.77v0c2.133 0 3.783 0.25 4.95 0.75 1.167 0.5 1.75 1.367 1.75 2.6v0c0 0.833-0.307 1.567-0.92 2.2-0.62 0.633-1.497 0.95-2.63 0.95v0c-1 0-1.64-0.077-1.92-0.23-0.287-0.147-0.447-0.403-0.48-0.77v0c0-0.333 0.083-0.683 0.25-1.05zM89.65 1.05c-2.933 0-5.217-1-6.85-3-1.633-2-2.45-4.55-2.45-7.65v0c0-2.6 0.627-5.05 1.88-7.35 1.247-2.3 2.953-4.15 5.12-5.55 2.167-1.4 4.55-2.1 7.15-2.1v0c2.567 0 4.677 0.84 6.33 2.52 1.647 1.687 2.47 4.163 2.47 7.43v0c0 2.3-0.633 4.683-1.9 7.15-1.267 2.467-2.957 4.507-5.07 6.12-2.12 1.62-4.347 2.43-6.68 2.43zM90.4-2.95c1.067 0 2.143-0.667 3.23-2 1.08-1.333 1.97-3.017 2.67-5.05 0.7-2.033 1.05-4.017 1.05-5.95v0c0-2.967-1.233-4.45-3.7-4.45v0c-1.367 0-2.617 0.65-3.75 1.95-1.133 1.3-2.033 2.907-2.7 4.82-0.667 1.92-1 3.713-1 5.38v0c0 0.967 0.217 1.857 0.65 2.67 0.433 0.82 0.977 1.463 1.63 1.93 0.647 0.467 1.287 0.7 1.92 0.7zM111.25-1.9c-0.033 0.2-0.107 0.59-0.22 1.17-0.12 0.587-0.403 0.997-0.85 1.23-0.453 0.233-1.163 0.35-2.13 0.35v0c-1.1 0-1.9-0.117-2.4-0.35-0.5-0.233-0.75-0.733-0.75-1.5v0l2.4-9.55c1.333-5.5 2.217-9 2.65-10.5v0l-1.25-1.5c-0.1-0.1-0.15-0.217-0.15-0.35v0c0-0.333 0.367-0.61 1.1-0.83 0.733-0.213 1.75-0.32 3.05-0.32v0c1.167 0 1.95 0.323 2.35 0.97 0.4 0.653 0.65 1.497 0.75 2.53v0l-0.35 1.3c1.067-1.3 2.31-2.377 3.73-3.23 1.413-0.847 2.67-1.27 3.77-1.27v0c1.433 0 2.55 0.25 3.35 0.75 0.8 0.5 1.2 1.15 1.2 1.95v0c0 0.7-0.24 1.423-0.72 2.17-0.487 0.753-1.097 1.387-1.83 1.9-0.733 0.52-1.45 0.813-2.15 0.88v0c-0.667 0-1.117-0.083-1.35-0.25-0.233-0.167-0.35-0.417-0.35-0.75v0l0.3-1.65c-2.667 0.733-5.083 2.5-7.25 5.3v0zM136.45-18.1l-3.15 12.6c0 0.767 0.2 1.373 0.6 1.82 0.4 0.453 0.967 0.68 1.7 0.68v0c1 0 1.827-0.293 2.48-0.88 0.647-0.58 1.337-1.403 2.07-2.47v0c0.533-0.767 0.967-1.317 1.3-1.65 0.333-0.333 0.717-0.5 1.15-0.5v0c0.867 0 1.483 0.107 1.85 0.32 0.367 0.22 0.55 0.663 0.55 1.33v0c0 0.3-0.033 0.657-0.1 1.07-0.067 0.42-0.15 0.73-0.25 0.93v0c-0.8 1.7-2.107 3.167-3.92 4.4-1.82 1.233-3.88 1.85-6.18 1.85v0c-2.3 0-4.033-0.56-5.2-1.68-1.167-1.113-1.75-2.703-1.75-4.77v0c0-0.3 0.15-1.083 0.45-2.35 0.3-1.267 0.683-2.783 1.15-4.55v0l1.4-5.7-3.05 0.25c-0.4 0-0.7-0.15-0.9-0.45-0.2-0.3-0.3-0.667-0.3-1.1v0c0-0.833 0.3-1.667 0.9-2.5v0c0.067-0.1 0.4-0.2 1-0.3 0.6-0.1 1.333-0.2 2.2-0.3v0l1.35-0.15 1.7-7.3c0.333-0.867 0.843-1.543 1.53-2.03 0.68-0.48 1.32-0.72 1.92-0.72v0c0.667 0 1.233 0.2 1.7 0.6 0.467 0.4 0.717 0.867 0.75 1.4v0l-1.8 7.5c1.3-0.167 2.51-0.31 3.63-0.43 1.113-0.113 1.987-0.17 2.62-0.17v0c1.267 0 1.9 0.733 1.9 2.2v0c0 0.567-0.24 1.073-0.72 1.52-0.487 0.453-1.013 0.73-1.58 0.83v0z" fill="#ffb215" fill-rule="nonzero" stroke="none" stroke-width="1" stroke-linecap="butt" stroke-linejoin="miter" stroke-miterlimit="10" stroke-dasharray="" stroke-dashoffset="0" font-family="none" font-weight="none" font-size="none" text-anchor="none" style="mix-blend-mode: normal" data-fill-palette-color="primary" opacity="1"></path></g></svg></g></svg></g></svg></g></svg></g><g transform="matrix(1,0,0,1,0,14.159254611786537)"><svg viewBox="0 0 179.464406779661 172.68149077642693" height="172.68149077642693" width="179.464406779661"><g><svg xmlns="http://www.w3.org/2000/svg" xmlns:xlink="http://www.w3.org/1999/xlink" version="1.1" x="0" y="0" viewBox="1 2.2249999999999996 61.91510153071851 59.575" style="enable-background:new 0 0 64 64;" xml:space="preserve" height="172.68149077642693" width="179.464406779661" class="icon-icon-0" data-fill-palette-color="accent" id="icon-0"><g fill="#ffb215" data-fill-palette-color="accent"><path d="M49.3 49v-1.6H48V44l-2.1-2.4c0 0 0 0 0 0l-2 2.4v3.3h-2.7V44L39 41.6c0 0 0 0 0 0l-2 2.4v3.3h-2.7V44l-2.1-2.4c0 0 0 0 0 0l-2 2.4v3.3h-2.7V44l-2.1-2.4c0 0 0 0 0 0l-2 2.4v3.3h-2.7V44l-2.1-2.4c0 0 0 0 0 0l-2 2.4v3.3h-2.7V44l-2.1-2.4c0 0 0 0 0 0l-2 2.4v3.3H6.9V44l-2.1-2.4c0 0 0 0 0 0l-2 2.4v3.3H1V49h1.7v5.5H1v1.6h1.7v5.7h4.2v-5.7h2.7v5.7h4.2v-5.7h2.7v5.7h4.2v-5.7h2.7v5.7h4.2v-5.7h2.7v5.7h4.2v-5.7h2.7v5.7h4.2v-5.7h2.7v5.7H48v-5.7h1.3v-1.6H48V49H49.3zM4.8 55.8c-0.3 0-0.6-0.3-0.6-0.6 0-0.3 0.3-0.6 0.6-0.6 0.3 0 0.6 0.3 0.6 0.6C5.5 55.5 5.2 55.8 4.8 55.8zM4.8 48.7c-0.3 0-0.6-0.3-0.6-0.6 0-0.3 0.3-0.6 0.6-0.6 0.3 0 0.6 0.3 0.6 0.6C5.5 48.4 5.2 48.7 4.8 48.7zM9.5 54.4H6.9V49h2.7V54.4zM11.7 55.8c-0.3 0-0.6-0.3-0.6-0.6 0-0.3 0.3-0.6 0.6-0.6 0.3 0 0.6 0.3 0.6 0.6C12.3 55.5 12 55.8 11.7 55.8zM11.7 48.7c-0.3 0-0.6-0.3-0.6-0.6 0-0.3 0.3-0.6 0.6-0.6 0.3 0 0.6 0.3 0.6 0.6C12.3 48.4 12 48.7 11.7 48.7zM16.4 54.4h-2.7V49h2.7V54.4zM18.5 55.8c-0.3 0-0.6-0.3-0.6-0.6 0-0.3 0.3-0.6 0.6-0.6 0.3 0 0.6 0.3 0.6 0.6C19.1 55.5 18.8 55.8 18.5 55.8zM18.5 48.7c-0.3 0-0.6-0.3-0.6-0.6 0-0.3 0.3-0.6 0.6-0.6 0.3 0 0.6 0.3 0.6 0.6C19.1 48.4 18.8 48.7 18.5 48.7zM23.2 54.4h-2.7V49h2.7V54.4zM25.3 55.8c-0.3 0-0.6-0.3-0.6-0.6 0-0.3 0.3-0.6 0.6-0.6s0.6 0.3 0.6 0.6C25.9 55.5 25.6 55.8 25.3 55.8zM25.3 48.7c-0.3 0-0.6-0.3-0.6-0.6 0-0.3 0.3-0.6 0.6-0.6s0.6 0.3 0.6 0.6C25.9 48.4 25.6 48.7 25.3 48.7zM30.1 54.4h-2.7V49h2.7V54.4zM32.1 55.8c-0.3 0-0.6-0.3-0.6-0.6 0-0.3 0.3-0.6 0.6-0.6s0.6 0.3 0.6 0.6C32.7 55.5 32.4 55.8 32.1 55.8zM32.1 48.7c-0.3 0-0.6-0.3-0.6-0.6 0-0.3 0.3-0.6 0.6-0.6s0.6 0.3 0.6 0.6C32.7 48.4 32.4 48.7 32.1 48.7zM36.9 54.4h-2.7V49h2.7V54.4zM38.9 55.8c-0.3 0-0.6-0.3-0.6-0.6 0-0.3 0.3-0.6 0.6-0.6s0.6 0.3 0.6 0.6C39.5 55.5 39.3 55.8 38.9 55.8zM38.9 48.7c-0.3 0-0.6-0.3-0.6-0.6 0-0.3 0.3-0.6 0.6-0.6s0.6 0.3 0.6 0.6C39.5 48.4 39.3 48.7 38.9 48.7zM43.8 54.4h-2.7V49h2.7V54.4zM45.7 55.8c-0.3 0-0.6-0.3-0.6-0.6 0-0.3 0.3-0.6 0.6-0.6s0.6 0.3 0.6 0.6C46.3 55.5 46.1 55.8 45.7 55.8zM45.7 48.7c-0.3 0-0.6-0.3-0.6-0.6 0-0.3 0.3-0.6 0.6-0.6s0.6 0.3 0.6 0.6C46.3 48.4 46.1 48.7 45.7 48.7z" fill="#ffb215" data-fill-palette-color="accent"></path><path d="M61.8 16.7L47.4 3.8c-2.4-2.1-6.3-2.1-8.7 0L24.2 16.7c-0.8 0.7-1.2 1.6-1.2 2.6 0 1 0.4 1.9 1.2 2.6 0.7 0.7 1.7 1 2.7 1 0.7 0 1.4-0.2 1.9-0.5 0 0 0 0.1 0 0.1v15h-1c-0.5 0-0.9 0.6-0.9 1.3 0 0.7 0.4 1.3 0.9 1.3h30.2c0.5 0 0.9-0.6 0.9-1.3 0-0.7-0.4-1.3-0.9-1.3h-1v-15c0 0 0-0.1 0-0.1 0.6 0.3 1.3 0.5 2 0.5 1 0 2-0.3 2.7-1 0.8-0.7 1.2-1.6 1.2-2.6C63 18.4 62.6 17.4 61.8 16.7zM60.5 19.8c-0.1 0.1-0.2 0.3-0.3 0.4-0.6 0.6-1.7 0.6-2.3 0L44.7 8.4c-0.9-0.8-2.4-0.8-3.3 0L28.1 20.2c-0.3 0.3-0.7 0.4-1.2 0.4s-0.9-0.1-1.2-0.4c-0.3-0.2-0.4-0.5-0.4-0.9 0-0.3 0.1-0.6 0.4-0.9L40.2 5.6c1.5-1.3 4-1.3 5.5 0l14.4 12.9c0.3 0.2 0.4 0.5 0.4 0.9C60.6 19.5 60.6 19.7 60.5 19.8zM38.4 37.7h-6.6v-8.6c0-1.6 1.5-2.9 3.3-2.9 0.9 0 1.7 0.3 2.3 0.9 0.6 0.5 1 1.3 1 2.1V37.7zM50.2 30.9c0 0.2-0.1 0.3-0.3 0.3h-2.6c-0.2 0-0.3-0.1-0.3-0.3v-2.3c0-0.2 0.1-0.3 0.3-0.3h2.6c0.2 0 0.3 0.1 0.3 0.3V30.9zM50.2 27.7c0 0.2-0.1 0.3-0.3 0.3h-2.6c-0.2 0-0.3-0.1-0.3-0.3v-2.3c0-0.2 0.1-0.3 0.3-0.3h2.6c0.2 0 0.3 0.1 0.3 0.3V27.7zM53.9 30.9c0 0.2-0.1 0.3-0.3 0.3H51c-0.2 0-0.3-0.1-0.3-0.3v-2.3c0-0.2 0.1-0.3 0.3-0.3h2.6c0.2 0 0.3 0.1 0.3 0.3V30.9zM53.9 27.7c0 0.2-0.1 0.3-0.3 0.3H51c-0.2 0-0.3-0.1-0.3-0.3v-2.3c0-0.2 0.1-0.3 0.3-0.3h2.6c0.2 0 0.3 0.1 0.3 0.3V27.7z" fill="#ffb215" data-fill-palette-color="accent"></path></g></svg></g></svg></g></svg></g><defs></defs></svg><rect width="395.52" height="194.64555147874535" fill="none" stroke="none" visibility="hidden"></rect></g></svg></g></svg>