<svg xmlns="http://www.w3.org/2000/svg" version="1.1" xmlns:xlink="http://www.w3.org/1999/xlink" xmlns:svgjs="http://svgjs.dev/svgjs" width="2000" height="686" viewBox="0 0 2000 686"><g transform="matrix(1,0,0,1,-1.2121212121213603,0.9853981160664489)"><svg viewBox="0 0 396 136" data-background-color="#ffffff" preserveAspectRatio="xMidYMid meet" height="686" width="2000" xmlns="http://www.w3.org/2000/svg" xmlns:xlink="http://www.w3.org/1999/xlink"><g id="tight-bounds" transform="matrix(1,0,0,1,0.24000000000003752,-0.19535589473036907)"><svg viewBox="0 0 395.5199999999999 136.39071178946077" height="136.39071178946077" width="395.5199999999999"><g><svg viewBox="0 0 582.880747207473 200.99999999999997" height="136.39071178946077" width="395.5199999999999"><g><rect width="8.478159785964365" height="200.99999999999997" x="224.63470878396578" y="0" fill="#6fb586" opacity="1" stroke-width="0" stroke="transparent" fill-opacity="1" class="rect-o-0" data-fill-palette-color="primary" rx="1%" id="o-0" data-palette-color="#6fb586"></rect></g><g transform="matrix(1,0,0,1,255.30700413528186,0.4999999999999858)"><svg viewBox="0 0 327.573743072191 200" height="200" width="327.573743072191"><g><svg viewBox="0 0 327.573743072191 200" height="200" width="327.573743072191"><g><svg viewBox="0 0 327.573743072191 200" height="200" width="327.573743072191"><g transform="matrix(1,0,0,1,0,0)"><svg width="327.573743072191" viewBox="3.9999961853027344 -36.36000061035156 164.13002014160156 87.06999969482422" height="200" data-palette-color="#6fb586"><svg></svg><svg></svg><g class="undefined-text-0" data-fill-palette-color="primary" id="text-0"><path xmlns="http://www.w3.org/2000/svg" d="M27.38-12.89v-23.47h5.5v23.91c0 2.547-0.597 4.8-1.79 6.76-1.193 1.96-2.873 3.5-5.04 4.62-2.167 1.113-4.707 1.67-7.62 1.67v0c-2.9 0-5.433-0.557-7.6-1.67-2.167-1.12-3.847-2.66-5.04-4.62-1.193-1.96-1.79-4.213-1.79-6.76v0-23.91h5.48v23.47c0 1.647 0.363 3.11 1.09 4.39 0.733 1.273 1.767 2.273 3.1 3 1.34 0.733 2.927 1.1 4.76 1.1v0c1.847 0 3.443-0.367 4.79-1.1 1.34-0.727 2.37-1.727 3.09-3 0.713-1.28 1.07-2.743 1.07-4.39zM50.66 0.53v0c-2.207 0-4.17-0.563-5.89-1.69-1.72-1.133-3.07-2.75-4.05-4.85-0.973-2.1-1.46-4.623-1.46-7.57v0c0-2.947 0.493-5.47 1.48-7.57 0.987-2.093 2.347-3.697 4.08-4.81 1.727-1.113 3.683-1.67 5.87-1.67v0c1.693 0 3.06 0.283 4.1 0.85 1.033 0.56 1.837 1.213 2.41 1.96 0.573 0.747 1.02 1.403 1.34 1.97v0h0.32v-13.51h5.31v36.36h-5.19v-4.24h-0.44c-0.32 0.58-0.78 1.243-1.38 1.99-0.593 0.74-1.41 1.39-2.45 1.95-1.047 0.553-2.397 0.83-4.05 0.83zM51.83-4v0c1.527 0 2.82-0.403 3.88-1.21 1.06-0.813 1.863-1.94 2.41-3.38 0.553-1.447 0.83-3.13 0.83-5.05v0c0-1.893-0.273-3.55-0.82-4.97-0.54-1.42-1.337-2.527-2.39-3.32-1.06-0.793-2.363-1.19-3.91-1.19v0c-1.6 0-2.933 0.413-4 1.24-1.06 0.833-1.86 1.967-2.4 3.4-0.54 1.427-0.81 3.04-0.81 4.84v0c0 1.827 0.273 3.467 0.82 4.92 0.54 1.46 1.347 2.613 2.42 3.46 1.073 0.84 2.397 1.26 3.97 1.26zM83.17 10.74v0c-2.167 0-4.03-0.283-5.59-0.85-1.553-0.567-2.823-1.317-3.81-2.25-0.98-0.927-1.713-1.933-2.2-3.02v0l4.57-1.89c0.32 0.5 0.747 1.04 1.28 1.62 0.54 0.58 1.277 1.077 2.21 1.49 0.927 0.413 2.123 0.62 3.59 0.62v0c2.013 0 3.677-0.483 4.99-1.45 1.313-0.973 1.97-2.513 1.97-4.62v0-5.36h-0.34c-0.32 0.58-0.777 1.223-1.37 1.93-0.6 0.713-1.42 1.33-2.46 1.85-1.04 0.52-2.397 0.78-4.07 0.78v0c-2.153 0-4.09-0.507-5.81-1.52-1.727-1.007-3.09-2.503-4.09-4.49-1-1.98-1.5-4.42-1.5-7.32v0c0-2.9 0.497-5.387 1.49-7.46 0.987-2.073 2.343-3.663 4.07-4.77 1.727-1.107 3.687-1.66 5.88-1.66v0c1.693 0 3.06 0.283 4.1 0.85 1.04 0.56 1.853 1.213 2.44 1.96 0.587 0.747 1.04 1.403 1.36 1.97v0h0.39v-4.42h5.2v27.87c0 2.32-0.543 4.23-1.63 5.73-1.087 1.5-2.557 2.61-4.41 3.33-1.853 0.72-3.94 1.08-6.26 1.08zM83.11-4.81v0c1.527 0 2.82-0.36 3.88-1.08 1.06-0.713 1.867-1.743 2.42-3.09 0.547-1.34 0.82-2.95 0.82-4.83v0c0-1.84-0.27-3.457-0.81-4.85-0.547-1.4-1.347-2.493-2.4-3.28-1.053-0.787-2.357-1.18-3.91-1.18v0c-1.593 0-2.923 0.413-3.99 1.24-1.067 0.82-1.87 1.933-2.41 3.34-0.533 1.413-0.8 2.99-0.8 4.73v0c0 1.787 0.27 3.353 0.81 4.7 0.547 1.353 1.357 2.407 2.43 3.16 1.067 0.76 2.387 1.14 3.96 1.14zM110.53 0.6v0c-1.727 0-3.29-0.32-4.69-0.96-1.393-0.647-2.497-1.587-3.31-2.82-0.813-1.227-1.22-2.737-1.22-4.53v0c0-1.533 0.297-2.8 0.89-3.8 0.593-0.993 1.393-1.78 2.4-2.36 1.007-0.58 2.13-1.017 3.37-1.31 1.247-0.3 2.513-0.527 3.8-0.68v0c1.633-0.187 2.96-0.343 3.98-0.47 1.02-0.12 1.76-0.323 2.22-0.61 0.46-0.287 0.69-0.747 0.69-1.38v0-0.13c0-1.547-0.433-2.747-1.3-3.6-0.873-0.853-2.167-1.28-3.88-1.28v0c-1.787 0-3.193 0.393-4.22 1.18-1.027 0.787-1.733 1.66-2.12 2.62v0l-4.99-1.14c0.593-1.653 1.46-2.993 2.6-4.02 1.14-1.027 2.457-1.773 3.95-2.24 1.493-0.467 3.063-0.7 4.71-0.7v0c1.087 0 2.243 0.127 3.47 0.38 1.22 0.26 2.367 0.727 3.44 1.4 1.073 0.673 1.953 1.633 2.64 2.88 0.687 1.253 1.03 2.873 1.03 4.86v0 18.11h-5.19v-3.73h-0.21c-0.34 0.687-0.853 1.363-1.54 2.03-0.687 0.66-1.57 1.21-2.65 1.65-1.08 0.433-2.37 0.65-3.87 0.65zM111.68-3.66v0c1.467 0 2.727-0.29 3.78-0.87 1.047-0.58 1.843-1.34 2.39-2.28 0.553-0.94 0.83-1.95 0.83-3.03v0-3.51c-0.193 0.187-0.557 0.36-1.09 0.52-0.54 0.16-1.153 0.297-1.84 0.41-0.687 0.113-1.357 0.213-2.01 0.3-0.647 0.087-1.19 0.16-1.63 0.22v0c-1.033 0.133-1.97 0.353-2.81 0.66-0.847 0.307-1.523 0.747-2.03 1.32-0.5 0.573-0.75 1.337-0.75 2.29v0c0 1.313 0.483 2.303 1.45 2.97 0.973 0.667 2.21 1 3.71 1zM136.36 0h-5.31v-27.27h5.1v4.44h0.34c0.567-1.507 1.497-2.683 2.79-3.53 1.287-0.847 2.83-1.27 4.63-1.27v0c1.82 0 3.35 0.427 4.59 1.28 1.24 0.853 2.153 2.027 2.74 3.52v0h0.29c0.647-1.46 1.68-2.623 3.1-3.49 1.42-0.873 3.113-1.31 5.08-1.31v0c2.473 0 4.497 0.777 6.07 2.33 1.567 1.547 2.35 3.883 2.35 7.01v0 18.29h-5.31v-17.79c0-1.847-0.503-3.183-1.51-4.01-1.007-0.833-2.207-1.25-3.6-1.25v0c-1.733 0-3.077 0.53-4.03 1.59-0.96 1.06-1.44 2.42-1.44 4.08v0 17.38h-5.29v-18.13c0-1.48-0.463-2.67-1.39-3.57-0.92-0.9-2.12-1.35-3.6-1.35v0c-1.007 0-1.933 0.263-2.78 0.79-0.847 0.527-1.527 1.26-2.04 2.2-0.52 0.933-0.78 2.017-0.78 3.25v0z" fill="#6fb586" fill-rule="nonzero" stroke="none" stroke-width="1" stroke-linecap="butt" stroke-linejoin="miter" stroke-miterlimit="10" stroke-dasharray="" stroke-dashoffset="0" font-family="none" font-weight="none" font-size="none" text-anchor="none" style="mix-blend-mode: normal" data-fill-palette-color="primary" opacity="1"></path><path xmlns="http://www.w3.org/2000/svg" d="M9.48 50.11h-5.48v-36.36h22.54v4.72h-17.06v11.08h15.45v4.7h-15.45zM40.7 50.71v0c-1.733 0-3.297-0.32-4.69-0.96-1.4-0.647-2.503-1.587-3.31-2.82-0.813-1.227-1.22-2.737-1.22-4.53v0c0-1.533 0.297-2.8 0.89-3.8 0.593-0.993 1.393-1.78 2.4-2.36 1-0.58 2.123-1.017 3.37-1.31 1.24-0.3 2.507-0.527 3.8-0.68v0c1.633-0.187 2.96-0.343 3.98-0.47 1.013-0.12 1.753-0.323 2.22-0.61 0.46-0.287 0.69-0.747 0.69-1.38v0-0.13c0-1.547-0.437-2.747-1.31-3.6-0.867-0.853-2.16-1.28-3.88-1.28v0c-1.787 0-3.19 0.393-4.21 1.18-1.027 0.787-1.737 1.66-2.13 2.62v0l-4.98-1.14c0.587-1.653 1.453-2.993 2.6-4.02 1.14-1.027 2.457-1.773 3.95-2.24 1.487-0.467 3.053-0.7 4.7-0.7v0c1.093 0 2.25 0.127 3.47 0.38 1.227 0.26 2.377 0.727 3.45 1.4 1.073 0.673 1.953 1.633 2.64 2.88 0.68 1.253 1.02 2.873 1.02 4.86v0 18.11h-5.18v-3.73h-0.21c-0.347 0.687-0.863 1.363-1.55 2.03-0.687 0.66-1.567 1.21-2.64 1.65-1.08 0.433-2.37 0.65-3.87 0.65zM41.85 46.45v0c1.467 0 2.723-0.29 3.77-0.87 1.047-0.58 1.847-1.34 2.4-2.28 0.553-0.94 0.83-1.95 0.83-3.03v0-3.51c-0.193 0.187-0.56 0.36-1.1 0.52-0.533 0.16-1.143 0.297-1.83 0.41-0.687 0.113-1.357 0.213-2.01 0.3-0.653 0.087-1.197 0.16-1.63 0.22v0c-1.033 0.133-1.973 0.353-2.82 0.66-0.847 0.307-1.52 0.747-2.02 1.32-0.507 0.573-0.76 1.337-0.76 2.29v0c0 1.313 0.487 2.303 1.46 2.97 0.973 0.667 2.21 1 3.71 1zM66.53 50.11h-5.31v-27.27h5.13v4.33h0.29c0.493-1.467 1.37-2.623 2.63-3.47 1.26-0.847 2.69-1.27 4.29-1.27v0c0.333 0 0.727 0.01 1.18 0.03 0.46 0.027 0.82 0.057 1.08 0.09v0 5.08c-0.213-0.06-0.593-0.127-1.14-0.2-0.547-0.08-1.09-0.12-1.63-0.12v0c-1.26 0-2.377 0.263-3.35 0.79-0.973 0.527-1.747 1.257-2.32 2.19-0.567 0.927-0.85 1.983-0.85 3.17v0zM85.74 50.11h-5.31v-27.27h5.1v4.44h0.34c0.567-1.507 1.493-2.683 2.78-3.53 1.293-0.847 2.84-1.27 4.64-1.27v0c1.82 0 3.35 0.427 4.59 1.28 1.233 0.853 2.147 2.027 2.74 3.52v0h0.29c0.647-1.46 1.68-2.623 3.1-3.49 1.42-0.873 3.113-1.31 5.08-1.31v0c2.473 0 4.493 0.777 6.06 2.33 1.573 1.547 2.36 3.883 2.36 7.01v0 18.29h-5.31v-17.79c0-1.847-0.503-3.183-1.51-4.01-1.007-0.833-2.21-1.25-3.61-1.25v0c-1.727 0-3.07 0.53-4.03 1.59-0.953 1.06-1.43 2.42-1.43 4.08v0 17.38h-5.3v-18.13c0-1.48-0.46-2.67-1.38-3.57-0.927-0.9-2.127-1.35-3.6-1.35v0c-1.007 0-1.933 0.263-2.78 0.79-0.847 0.527-1.53 1.26-2.05 2.2-0.513 0.933-0.77 2.017-0.77 3.25v0zM145.05 29.5v0l-4.82 0.85c-0.2-0.62-0.517-1.207-0.95-1.76-0.427-0.553-1.007-1.01-1.74-1.37-0.74-0.353-1.66-0.53-2.76-0.53v0c-1.5 0-2.753 0.333-3.76 1-1.007 0.673-1.51 1.537-1.51 2.59v0c0 0.907 0.337 1.64 1.01 2.2 0.673 0.553 1.763 1.01 3.27 1.37v0l4.33 0.99c2.513 0.58 4.383 1.473 5.61 2.68 1.233 1.207 1.85 2.777 1.85 4.71v0c0 1.633-0.47 3.087-1.41 4.36-0.94 1.267-2.25 2.263-3.93 2.99-1.673 0.72-3.61 1.08-5.81 1.08v0c-3.053 0-5.547-0.653-7.48-1.96-1.927-1.307-3.11-3.17-3.55-5.59v0l5.13-0.78c0.32 1.34 0.977 2.35 1.97 3.03 1 0.68 2.297 1.02 3.89 1.02v0c1.74 0 3.133-0.363 4.18-1.09 1.04-0.727 1.56-1.617 1.56-2.67v0c0-0.853-0.317-1.57-0.95-2.15-0.633-0.58-1.603-1.02-2.91-1.32v0l-4.61-1.01c-2.547-0.58-4.427-1.503-5.64-2.77-1.213-1.267-1.82-2.87-1.82-4.81v0c0-1.607 0.45-3.013 1.35-4.22 0.9-1.213 2.143-2.16 3.73-2.84 1.587-0.68 3.403-1.02 5.45-1.02v0c2.947 0 5.267 0.637 6.96 1.91 1.693 1.273 2.813 2.977 3.36 5.11z" fill="#6fb586" fill-rule="nonzero" stroke="none" stroke-width="1" stroke-linecap="butt" stroke-linejoin="miter" stroke-miterlimit="10" stroke-dasharray="" stroke-dashoffset="0" font-family="none" font-weight="none" font-size="none" text-anchor="none" style="mix-blend-mode: normal" data-fill-palette-color="primary" opacity="1"></path></g></svg></g></svg></g></svg></g></svg></g><g transform="matrix(1,0,0,1,0,3.1053697574227783)"><svg viewBox="0 0 202.44057321861405 194.78926048515441" height="194.78926048515441" width="202.44057321861405"><g><svg xmlns="http://www.w3.org/2000/svg" xmlns:xlink="http://www.w3.org/1999/xlink" version="1.1" x="0" y="0" viewBox="1 2.2249999046325684 61.915103912353516 59.57500076293945" style="enable-background:new 0 0 64 64;" xml:space="preserve" height="194.78926048515441" width="202.44057321861405" class="icon-icon-0" data-fill-palette-color="accent" id="icon-0"><g fill="#6fb586" data-fill-palette-color="accent"><path d="M49.3 49v-1.6H48V44l-2.1-2.4c0 0 0 0 0 0l-2 2.4v3.3h-2.7V44L39 41.6c0 0 0 0 0 0l-2 2.4v3.3h-2.7V44l-2.1-2.4c0 0 0 0 0 0l-2 2.4v3.3h-2.7V44l-2.1-2.4c0 0 0 0 0 0l-2 2.4v3.3h-2.7V44l-2.1-2.4c0 0 0 0 0 0l-2 2.4v3.3h-2.7V44l-2.1-2.4c0 0 0 0 0 0l-2 2.4v3.3H6.9V44l-2.1-2.4c0 0 0 0 0 0l-2 2.4v3.3H1V49h1.7v5.5H1v1.6h1.7v5.7h4.2v-5.7h2.7v5.7h4.2v-5.7h2.7v5.7h4.2v-5.7h2.7v5.7h4.2v-5.7h2.7v5.7h4.2v-5.7h2.7v5.7h4.2v-5.7h2.7v5.7H48v-5.7h1.3v-1.6H48V49H49.3zM4.8 55.8c-0.3 0-0.6-0.3-0.6-0.6 0-0.3 0.3-0.6 0.6-0.6 0.3 0 0.6 0.3 0.6 0.6C5.5 55.5 5.2 55.8 4.8 55.8zM4.8 48.7c-0.3 0-0.6-0.3-0.6-0.6 0-0.3 0.3-0.6 0.6-0.6 0.3 0 0.6 0.3 0.6 0.6C5.5 48.4 5.2 48.7 4.8 48.7zM9.5 54.4H6.9V49h2.7V54.4zM11.7 55.8c-0.3 0-0.6-0.3-0.6-0.6 0-0.3 0.3-0.6 0.6-0.6 0.3 0 0.6 0.3 0.6 0.6C12.3 55.5 12 55.8 11.7 55.8zM11.7 48.7c-0.3 0-0.6-0.3-0.6-0.6 0-0.3 0.3-0.6 0.6-0.6 0.3 0 0.6 0.3 0.6 0.6C12.3 48.4 12 48.7 11.7 48.7zM16.4 54.4h-2.7V49h2.7V54.4zM18.5 55.8c-0.3 0-0.6-0.3-0.6-0.6 0-0.3 0.3-0.6 0.6-0.6 0.3 0 0.6 0.3 0.6 0.6C19.1 55.5 18.8 55.8 18.5 55.8zM18.5 48.7c-0.3 0-0.6-0.3-0.6-0.6 0-0.3 0.3-0.6 0.6-0.6 0.3 0 0.6 0.3 0.6 0.6C19.1 48.4 18.8 48.7 18.5 48.7zM23.2 54.4h-2.7V49h2.7V54.4zM25.3 55.8c-0.3 0-0.6-0.3-0.6-0.6 0-0.3 0.3-0.6 0.6-0.6s0.6 0.3 0.6 0.6C25.9 55.5 25.6 55.8 25.3 55.8zM25.3 48.7c-0.3 0-0.6-0.3-0.6-0.6 0-0.3 0.3-0.6 0.6-0.6s0.6 0.3 0.6 0.6C25.9 48.4 25.6 48.7 25.3 48.7zM30.1 54.4h-2.7V49h2.7V54.4zM32.1 55.8c-0.3 0-0.6-0.3-0.6-0.6 0-0.3 0.3-0.6 0.6-0.6s0.6 0.3 0.6 0.6C32.7 55.5 32.4 55.8 32.1 55.8zM32.1 48.7c-0.3 0-0.6-0.3-0.6-0.6 0-0.3 0.3-0.6 0.6-0.6s0.6 0.3 0.6 0.6C32.7 48.4 32.4 48.7 32.1 48.7zM36.9 54.4h-2.7V49h2.7V54.4zM38.9 55.8c-0.3 0-0.6-0.3-0.6-0.6 0-0.3 0.3-0.6 0.6-0.6s0.6 0.3 0.6 0.6C39.5 55.5 39.3 55.8 38.9 55.8zM38.9 48.7c-0.3 0-0.6-0.3-0.6-0.6 0-0.3 0.3-0.6 0.6-0.6s0.6 0.3 0.6 0.6C39.5 48.4 39.3 48.7 38.9 48.7zM43.8 54.4h-2.7V49h2.7V54.4zM45.7 55.8c-0.3 0-0.6-0.3-0.6-0.6 0-0.3 0.3-0.6 0.6-0.6s0.6 0.3 0.6 0.6C46.3 55.5 46.1 55.8 45.7 55.8zM45.7 48.7c-0.3 0-0.6-0.3-0.6-0.6 0-0.3 0.3-0.6 0.6-0.6s0.6 0.3 0.6 0.6C46.3 48.4 46.1 48.7 45.7 48.7z" fill="#6fb586" data-fill-palette-color="accent"></path><path d="M61.8 16.7L47.4 3.8c-2.4-2.1-6.3-2.1-8.7 0L24.2 16.7c-0.8 0.7-1.2 1.6-1.2 2.6 0 1 0.4 1.9 1.2 2.6 0.7 0.7 1.7 1 2.7 1 0.7 0 1.4-0.2 1.9-0.5 0 0 0 0.1 0 0.1v15h-1c-0.5 0-0.9 0.6-0.9 1.3 0 0.7 0.4 1.3 0.9 1.3h30.2c0.5 0 0.9-0.6 0.9-1.3 0-0.7-0.4-1.3-0.9-1.3h-1v-15c0 0 0-0.1 0-0.1 0.6 0.3 1.3 0.5 2 0.5 1 0 2-0.3 2.7-1 0.8-0.7 1.2-1.6 1.2-2.6C63 18.4 62.6 17.4 61.8 16.7zM60.5 19.8c-0.1 0.1-0.2 0.3-0.3 0.4-0.6 0.6-1.7 0.6-2.3 0L44.7 8.4c-0.9-0.8-2.4-0.8-3.3 0L28.1 20.2c-0.3 0.3-0.7 0.4-1.2 0.4s-0.9-0.1-1.2-0.4c-0.3-0.2-0.4-0.5-0.4-0.9 0-0.3 0.1-0.6 0.4-0.9L40.2 5.6c1.5-1.3 4-1.3 5.5 0l14.4 12.9c0.3 0.2 0.4 0.5 0.4 0.9C60.6 19.5 60.6 19.7 60.5 19.8zM38.4 37.7h-6.6v-8.6c0-1.6 1.5-2.9 3.3-2.9 0.9 0 1.7 0.3 2.3 0.9 0.6 0.5 1 1.3 1 2.1V37.7zM50.2 30.9c0 0.2-0.1 0.3-0.3 0.3h-2.6c-0.2 0-0.3-0.1-0.3-0.3v-2.3c0-0.2 0.1-0.3 0.3-0.3h2.6c0.2 0 0.3 0.1 0.3 0.3V30.9zM50.2 27.7c0 0.2-0.1 0.3-0.3 0.3h-2.6c-0.2 0-0.3-0.1-0.3-0.3v-2.3c0-0.2 0.1-0.3 0.3-0.3h2.6c0.2 0 0.3 0.1 0.3 0.3V27.7zM53.9 30.9c0 0.2-0.1 0.3-0.3 0.3H51c-0.2 0-0.3-0.1-0.3-0.3v-2.3c0-0.2 0.1-0.3 0.3-0.3h2.6c0.2 0 0.3 0.1 0.3 0.3V30.9zM53.9 27.7c0 0.2-0.1 0.3-0.3 0.3H51c-0.2 0-0.3-0.1-0.3-0.3v-2.3c0-0.2 0.1-0.3 0.3-0.3h2.6c0.2 0 0.3 0.1 0.3 0.3V27.7z" fill="#6fb586" data-fill-palette-color="accent"></path></g></svg></g></svg></g></svg></g><defs></defs></svg><rect width="395.5199999999999" height="136.39071178946077" fill="none" stroke="none" visibility="hidden"></rect></g></svg></g></svg>