<?xml version="1.0" encoding="utf-8"?>
<svg viewBox="0 0 1050 1050" xmlns="http://www.w3.org/2000/svg">
  <g transform="matrix(16, 0, 0, 16, -1990.918823, 16.490057)" style="">
    <svg viewBox="0 0 316.416 121.79813899528952" height="121.79813899528952" width="316.416">
      <g>
        <svg viewBox="0 0 316.416 121.79813899528952" height="121.79813899528952" width="316.416" transform="matrix(1, 0, 0, 1, -174.89733843805143, 62.91271166836381)">
          <g transform="matrix(1,0,0,1,126.06104803117323,0)">
            <svg viewBox="0 0 64.29390393765354 64.29340786573427" height="64.29340786573427" width="64.29390393765354">
              <g>
                <svg xmlns="http://www.w3.org/2000/svg" version="1.1" x="0" y="0" viewBox="1.9990432468890575 2 124.00095675311094 124" style="enable-background:new 0 0 128 128;" height="64.29340786573427" width="64.29390393765354" class="icon-icon-0" data-fill-palette-color="accent" id="icon-0">
                  <g fill="#ff4057" data-fill-palette-color="accent">
                    <g fill="#ff4057" data-fill-palette-color="accent">
                      <path d="M71.88 83.54h-19.1V59.694h43.617c-1.092-4.523-4.947-9.322-11.505-14.304-9.549-7.257-20.786-11.133-32.088-11.636l-0.023-5.34c-0.005-1.102-0.899-1.991-2-1.991-0.003 0-0.006 0-0.009 0-1.105 0.005-1.996 0.904-1.991 2.009l0.023 5.292c-11.63 0.303-23.125 4.177-32.714 11.642-6.264 4.878-9.935 9.685-10.95 14.328H48.78V83.54h-19.1c-1.104 0-2 0.896-2 2s0.896 2 2 2h19.1V122h-9.25c-1.105 0-2 0.896-2 2s0.896 2 2 2h22.499c1.104 0 2-0.896 2-2s-0.896-2-2-2H52.78V87.54h19.1c1.104 0 2-0.896 2-2S72.985 83.54 71.88 83.54z" fill="#ff4057" data-fill-palette-color="accent"/>
                      <path d="M30.419 117.489l-4.774-15.125h2.452c1.104 0 2-0.896 2-2s-0.896-2-2-2H11.288L7.153 73.523c-0.181-1.09-1.217-1.827-2.301-1.645-1.09 0.181-1.826 1.211-1.645 2.301l4.334 26.041-5.451 17.269c-0.401 1.269 0.576 2.603 1.908 2.603 0.85 0 1.638-0.546 1.907-1.399l5.154-16.328h10.392l5.153 16.328c0.269 0.854 1.057 1.399 1.907 1.399C29.844 120.092 30.819 118.756 30.419 117.489z" fill="#ff4057" data-fill-palette-color="accent"/>
                      <path d="M99.468 117.489l-5.451-17.27 4.333-26.04c0.182-1.09-0.555-2.12-1.645-2.301-1.097-0.186-2.119 0.556-2.301 1.645l-4.134 24.841h-16.81c-1.104 0-2 0.896-2 2s0.896 2 2 2h2.451l-4.774 15.125c-0.4 1.269 0.577 2.603 1.908 2.603 0.849 0 1.637-0.546 1.906-1.399l5.153-16.328H90.5l5.153 16.328c0.27 0.854 1.058 1.399 1.906 1.399C98.893 120.092 99.868 118.756 99.468 117.489z" fill="#ff4057" data-fill-palette-color="accent"/>
                      <g fill="#ff4057" data-fill-palette-color="accent">
                        <path d="M106.131 12.52c-5.238 0-9.5 4.261-9.5 9.499 0 5.239 4.262 9.501 9.5 9.501s9.5-4.261 9.5-9.501C115.631 16.781 111.369 12.52 106.131 12.52z" fill="#ff4057" data-fill-palette-color="accent"/>
                        <g fill="#ff4057" data-fill-palette-color="accent">
                          <path d="M106.131 8.964c-1.105 0-2-0.896-2-2V4c0-1.104 0.896-2 2-2s2 0.896 2 2v2.964C108.131 8.068 107.235 8.964 106.131 8.964z" fill="#ff4057" data-fill-palette-color="accent"/>
                          <path d="M95.236 13.033c-0.515 0-1.029-0.197-1.42-0.592l-1.74-1.755c-0.778-0.784-0.772-2.051 0.012-2.828s2.052-0.772 2.828 0.012l1.74 1.755C97.876 10.855 96.979 13.033 95.236 13.033z" fill="#ff4057" data-fill-palette-color="accent"/>
                          <path d="M91.201 24.02h-2.939c-1.105 0-2-0.896-2-2s0.896-2 2-2h2.939c1.105 0 2 0.896 2 2S92.305 24.02 91.201 24.02z" fill="#ff4057" data-fill-palette-color="accent"/>
                          <path d="M93.496 36.762c-1.743 0-2.64-2.179-1.42-3.408l1.74-1.755c0.777-0.785 2.043-0.79 2.828-0.012 0.784 0.777 0.79 2.044 0.012 2.828l-1.74 1.755C94.525 36.564 94.01 36.762 93.496 36.762z" fill="#ff4057" data-fill-palette-color="accent"/>
                          <path d="M106.131 42.04c-1.105 0-2-0.896-2-2v-2.964c0-1.104 0.896-2 2-2s2 0.896 2 2v2.964C108.131 41.145 107.235 42.04 106.131 42.04z" fill="#ff4057" data-fill-palette-color="accent"/>
                          <path d="M118.766 36.762c-0.515 0-1.029-0.197-1.42-0.592l-1.74-1.755c-0.778-0.784-0.772-2.051 0.012-2.828 0.784-0.777 2.052-0.772 2.828 0.012l1.74 1.755C121.407 34.583 120.51 36.762 118.766 36.762z" fill="#ff4057" data-fill-palette-color="accent"/>
                          <path d="M124 24.02h-2.939c-1.105 0-2-0.896-2-2s0.896-2 2-2H124c1.105 0 2 0.896 2 2S125.104 24.02 124 24.02z" fill="#ff4057" data-fill-palette-color="accent"/>
                          <path d="M117.026 13.033c-1.743 0-2.64-2.179-1.42-3.408l1.74-1.755c0.776-0.785 2.044-0.791 2.828-0.012 0.784 0.777 0.79 2.044 0.012 2.828l-1.74 1.755C118.056 12.836 117.541 13.033 117.026 13.033z" fill="#ff4057" data-fill-palette-color="accent"/>
                        </g>
                      </g>
                    </g>
                  </g>
                </svg>
              </g>
            </svg>
          </g>
          <g/>
        </svg>
      </g>
    </svg>
  </g>
</svg>